<svg width="71" height="72" viewBox="0 0 71 72" fill="none" xmlns="http://www.w3.org/2000/svg">
<g clip-path="url(#clip0)">
<path d="M28.6169 25.9712C28.3616 25.716 28.0077 25.5692 27.6468 25.5692C27.2859 25.5692 26.932 25.716 26.6767 25.9712C26.4215 26.2279 26.2747 26.5804 26.2747 26.9427C26.2747 27.3036 26.4215 27.6561 26.6767 27.9114C26.932 28.168 27.2859 28.3135 27.6468 28.3135C28.0077 28.3135 28.3616 28.168 28.6169 27.9114C28.8721 27.6575 29.0189 27.3036 29.0189 26.9427C29.0189 26.5804 28.8721 26.2264 28.6169 25.9712Z" fill="#F8F5F2"/>
<path d="M36.8961 25.9711C36.6409 25.7158 36.287 25.569 35.9261 25.569C35.5652 25.569 35.2113 25.7158 34.956 25.9711C34.7008 26.2263 34.554 26.5802 34.554 26.9425C34.554 27.3034 34.7008 27.656 34.956 27.9112C35.2113 28.1678 35.5652 28.3133 35.9261 28.3133C36.2884 28.3133 36.6409 28.1678 36.8961 27.9112C37.1514 27.656 37.2982 27.3034 37.2982 26.9425C37.2981 26.5804 37.1514 26.2277 36.8961 25.9711Z" fill="#F8F5F2"/>
<path d="M34.2768 30.1396C33.7411 29.6038 32.8723 29.6038 32.3363 30.1396C32.0224 30.4535 31.5117 30.4535 31.1978 30.1396C30.6621 29.6038 29.7933 29.6038 29.2573 30.1396C28.7215 30.6753 28.7215 31.5441 29.2573 32.0801C29.9492 32.7719 30.858 33.1179 31.7669 33.1179C32.6759 33.1179 33.5848 32.772 34.2767 32.0801C34.8125 31.5442 34.8125 30.6754 34.2768 30.1396Z" fill="#F8F5F2"/>
<path d="M49.427 65.291L49.3855 65.2512C48.8411 64.7241 47.9725 64.7384 47.4454 65.2829C46.9184 65.8275 46.9327 66.6961 47.4772 67.2231L47.5232 67.2675C47.7894 67.524 48.1322 67.6515 48.475 67.6515C48.8348 67.6515 49.1939 67.5108 49.4633 67.2312C49.989 66.6853 49.9727 65.8168 49.427 65.291Z" fill="#F8F5F2"/>
<path d="M60.7197 44.3861C62.5573 39.9929 63.3795 35.194 63.1021 30.4105C62.7923 25.0635 61.1143 19.862 58.2493 15.3683C57.8419 14.7294 56.9937 14.5416 56.3548 14.9489C55.7158 15.3564 55.5281 16.2046 55.9356 16.8435C61.066 24.8907 61.8106 35.1799 57.9432 43.8927C57.6177 43.8692 57.2893 43.8567 56.9579 43.8567C54.6714 43.8567 52.5154 44.4244 50.6218 45.4251C49.1296 42.7189 46.5194 40.8193 43.4258 40.2475L39.0225 39.4333C37.9115 39.2279 37.1051 38.2588 37.1051 37.1291V36.9102C40.5085 35.0246 42.8188 31.3964 42.8188 27.2377V20.7966C42.8188 14.703 37.8613 9.74552 31.7676 9.74552C25.674 9.74552 20.7165 14.7032 20.7165 20.7966V27.2377C20.7165 31.3954 23.0255 35.0228 26.4277 36.9088V37.1291C26.4277 38.2589 25.6213 39.2281 24.5105 39.4334L20.1092 40.2472C15.1875 41.1573 11.6154 45.4505 11.6154 50.4554V52.6707C11.5629 52.619 11.5098 52.5681 11.4575 52.5159C6.04125 47.0997 3.05846 39.8985 3.05846 32.2388C3.05846 24.5792 6.04152 17.3777 11.4578 11.9616C20.7025 2.71684 35.0173 0.886222 46.2684 7.5098C46.9213 7.89432 47.7624 7.6764 48.1469 7.02361C48.5314 6.37068 48.3136 5.52961 47.6607 5.14509C35.3313 -2.11317 19.6463 -0.107857 9.51723 10.0212C3.58281 15.9556 0.314453 23.8462 0.314453 32.2388C0.314453 40.6316 3.58267 48.522 9.51723 54.4565C15.5415 60.4806 23.6016 63.6576 31.7701 63.6576C35.8607 63.6576 39.9785 62.8584 43.8812 61.2232C43.9735 61.5446 44.0751 61.8636 44.1914 62.1786C44.4541 62.8893 45.243 63.253 45.954 62.99C46.6648 62.7275 47.0282 61.9383 46.7656 61.2274C46.3212 60.0248 46.096 58.7586 46.096 57.4633C46.096 51.4738 50.9689 46.601 56.9583 46.601C62.9476 46.601 67.8206 51.4738 67.8206 57.4633C67.8206 63.4526 62.9478 68.3254 56.9583 68.3254C55.8693 68.3254 54.7949 68.1651 53.7652 67.8489C53.0409 67.6268 52.2733 68.0337 52.0509 68.7579C51.8285 69.4822 52.2355 70.2498 52.9599 70.4722C54.2511 70.8687 55.5962 71.0695 56.9586 71.0695C64.4612 71.0695 70.565 64.9659 70.565 57.4633C70.5645 51.2651 66.3985 46.0221 60.7197 44.3861ZM31.7678 12.4898C36.3255 12.4898 40.0378 16.1799 40.0745 20.7293L35.667 18.1398C35.0891 17.8003 34.3507 17.9279 33.9203 18.4415C32.1559 20.5471 29.5684 21.7546 26.8213 21.7546H23.4608V21.2248V20.7968C23.4608 16.2162 27.1874 12.4898 31.7678 12.4898ZM23.4608 27.2378V24.4989H26.8211C29.9892 24.4989 32.9932 23.2601 35.2283 21.0649L40.0747 23.9121V27.238C40.0747 31.8184 36.3482 35.5449 31.7678 35.5449C27.1874 35.5448 23.4608 31.8184 23.4608 27.2378ZM29.4533 38.0432C30.2001 38.203 30.9739 38.2889 31.7678 38.2889C32.5794 38.2889 33.3699 38.1985 34.1322 38.0316L31.787 40.3769L29.4533 38.0432ZM33.4535 53.5694L31.7874 55.4655L30.1205 53.5691L31.7867 47.2347L33.4535 53.5694ZM43.3517 57.4631C43.3517 57.7929 43.3666 58.1207 43.3899 58.4473C33.7727 62.7238 22.6184 61.3394 14.3597 55.0509V50.4556C14.3597 46.7736 16.9876 43.6153 20.6083 42.9456L25.0096 42.1319C26.1951 41.9127 27.2202 41.2923 27.9568 40.4274L30.1603 42.6308L27.281 53.5774C27.1647 54.019 27.2759 54.4893 27.5774 54.8323L30.7572 58.4498C31.0178 58.7462 31.3933 58.9158 31.788 58.9158C32.1826 58.9158 32.5581 58.7458 32.8185 58.4495L35.9972 54.8321C36.2985 54.4891 36.4095 54.0187 36.2934 53.5771L33.4133 42.6317L35.5958 40.4492C36.331 41.3026 37.3486 41.9144 38.5242 42.1316L42.9276 42.9458C45.278 43.3804 47.2463 44.859 48.3241 46.955C45.2898 49.4527 43.3517 53.2358 43.3517 57.4631Z" fill="#F8F5F2"/>
<path d="M54.0056 10.075L53.9521 10.0214C53.4163 9.48563 52.5474 9.48563 52.0117 10.0214C51.4759 10.5571 51.4759 11.4259 52.0117 11.9618L52.0613 12.0116C52.3295 12.2807 52.6813 12.4155 53.0335 12.4155C53.3838 12.4155 53.734 12.2822 54.0017 12.0154C54.5386 11.4805 54.5402 10.6119 54.0056 10.075Z" fill="#F8F5F2"/>
<rect x="51.0525" y="57.1676" width="2.34203" height="7.02609" rx="1.17102" transform="rotate(-45 51.0525 57.1676)" fill="#F8F5F2"/>
<rect x="56.0208" y="62.1358" width="2.34203" height="10.1488" rx="1.17101" transform="rotate(-135 56.0208 62.1358)" fill="#F8F5F2"/>
</g>
<defs>
<clipPath id="clip0">
<rect width="70.2609" height="70.2609" fill="white" transform="translate(0.308594 0.808701)"/>
</clipPath>
</defs>
</svg>
