<svg width="80" height="50" viewBox="0 0 80 50" fill="none" xmlns="http://www.w3.org/2000/svg">
<path d="M39.5763 38.9016C38.6338 38.1877 37.4762 37.9518 36.3965 38.1531C36.2268 37.1301 35.6822 36.2254 34.8522 35.5967C33.9922 34.9454 32.9303 34.6681 31.8616 34.8156C31.5968 34.8522 31.3396 34.9139 31.0923 34.999C30.8579 34.1954 30.3736 33.4575 29.6565 32.9144C28.4754 32.0197 26.9569 31.8766 25.6767 32.4031C25.4219 31.6359 24.9431 30.9635 24.2848 30.4648C23.4249 29.8135 22.3625 29.5364 21.2942 29.6836C20.4276 29.8033 19.6412 30.1908 19.0274 30.7915L14.7893 30.5097L17.3869 9.40844L22.0415 9.72477C22.0679 9.72647 22.0942 9.7274 22.1203 9.7274C22.5522 9.7274 22.9513 9.48594 23.1503 9.09752L24.8946 5.69388C25.3366 4.83228 26.3344 4.3943 27.2673 4.65258L29.8578 5.36891C30.4737 5.53888 31.1119 5.17778 31.2825 4.56149C31.4529 3.9452 31.0914 3.3073 30.4751 3.13686L27.885 2.42069C25.8997 1.87109 23.7754 2.80294 22.8344 4.63714L21.4377 7.36243L17.6705 7.10647L17.7598 6.38149C18.0451 4.06439 16.3921 1.94736 14.075 1.66206L5.15361 0.564409C4.51787 0.486601 3.9411 0.937549 3.86299 1.57206C3.78487 2.20672 4.23612 2.78457 4.87063 2.86268L13.792 3.96095C14.3005 4.02347 14.7543 4.28037 15.0695 4.68423C15.3848 5.08809 15.524 5.5906 15.4613 6.09913L12.3978 30.9854C12.2686 32.035 11.3093 32.7833 10.2596 32.6549L1.33824 31.5566C0.702802 31.4791 0.125725 31.9296 0.0476082 32.5642C-0.0305087 33.1989 0.420748 33.7767 1.05525 33.8549L9.97664 34.9531C10.1514 34.9746 10.3251 34.9851 10.4969 34.9851C12.0608 34.9851 13.4717 34.1162 14.2027 32.7918L17.3732 33.0025C16.9942 33.7361 16.8489 34.5666 16.9641 35.4013C17.1117 36.4698 17.6665 37.4171 18.5264 38.0682C19.2355 38.6053 20.0818 38.888 20.9562 38.888C21.1423 38.888 21.3295 38.8752 21.5171 38.8494C21.5291 38.8477 21.5409 38.8454 21.5528 38.8435C21.5543 38.8556 21.5552 38.8675 21.5568 38.8795C21.7044 39.948 22.2592 40.8953 23.1191 41.5464C23.847 42.0976 24.7029 42.3639 25.5525 42.3639C25.7516 42.3639 25.9503 42.3477 26.147 42.3186C26.2804 43.3573 26.8131 44.344 27.7119 45.0246C28.4399 45.5759 29.2957 45.8421 30.1453 45.8421C30.3438 45.8421 30.5419 45.826 30.738 45.7972C30.7397 45.81 30.7406 45.823 30.7423 45.8358C30.8899 46.9042 31.4447 47.8515 32.3048 48.5027C33.0139 49.0396 33.8602 49.3225 34.7344 49.3225C34.9206 49.3225 35.1079 49.3096 35.2953 49.2839C36.3639 49.1363 37.3111 48.5814 37.9622 47.7215L40.3573 44.559C41.702 42.784 41.3515 40.2459 39.5763 38.9016ZM21.2005 36.5556C20.7449 36.6186 20.2916 36.5002 19.9248 36.2223C19.558 35.9446 19.3213 35.5404 19.2583 35.0847C19.1954 34.6288 19.3138 34.1758 19.5917 33.8089L20.4736 32.6442C20.7514 32.2774 21.1555 32.0407 21.6113 31.9777C22.0672 31.9152 22.5201 32.0332 22.8871 32.3111C23.2539 32.5888 23.4905 32.993 23.5535 33.4487C23.6165 33.9044 23.4981 34.3574 23.2204 34.7243L22.3382 35.889C22.0604 36.2558 21.6563 36.4926 21.2005 36.5556ZM24.5175 39.7005C24.1507 39.4228 23.914 39.0186 23.851 38.5629C23.788 38.107 23.9065 37.654 24.1843 37.2871L25.0663 36.1226C25.0663 36.1226 25.0665 36.1224 25.0665 36.1223L25.8453 35.0938C26.1837 34.647 26.6992 34.4119 27.2207 34.4119C27.583 34.4119 27.9482 34.5255 28.2586 34.7606C29.0159 35.3341 29.1654 36.4167 28.5919 37.1741L26.9309 39.3674C26.3574 40.1246 25.2747 40.274 24.5175 39.7005ZM29.1103 43.1787C28.7435 42.901 28.5069 42.4968 28.4439 42.0409C28.3809 41.5853 28.4991 41.1324 28.7767 40.7657C28.7769 40.7656 28.7769 40.7654 28.777 40.7653L30.438 38.5718L31.0407 37.776C31.3184 37.4092 31.7226 37.1725 32.1785 37.1095C32.6345 37.0468 33.0873 37.1649 33.4543 37.4428C34.2112 38.0161 34.3608 39.0981 33.7881 39.8553L31.5238 42.8452C31.5236 42.8454 31.5235 42.8456 31.5235 42.8457C30.9498 43.6026 29.8677 43.7522 29.1103 43.1787ZM38.5115 43.1611L36.1165 46.3236C35.8387 46.6904 35.4346 46.9271 34.9788 46.9901C34.5226 47.0529 34.0698 46.9347 33.703 46.6569C33.3362 46.3792 33.0995 45.975 33.0366 45.5193C32.9736 45.0634 33.092 44.6104 33.3699 44.2435L35.6337 41.2543C35.6342 41.2539 35.6345 41.2533 35.6349 41.2528L35.7651 41.081C36.0428 40.7142 36.447 40.4775 36.9029 40.4145C37.3588 40.352 37.8117 40.4699 38.1787 40.7478C38.9355 41.321 39.0851 42.4039 38.5115 43.1611Z" fill="#C2A38F"/>
<path d="M79.0737 32.5642C78.9955 31.9297 78.4183 31.4791 77.783 31.5566L68.8618 32.6549C67.8106 32.7841 66.8529 32.035 66.7236 30.9854L66.6322 30.2427L66.6111 30.0707L63.6603 6.09914C63.5976 5.59061 63.7368 5.08826 64.0521 4.68424C64.3673 4.28038 64.821 4.02349 65.3296 3.96097L74.2509 2.8627C74.8856 2.78458 75.3367 2.20673 75.2586 1.57207C75.1805 0.937565 74.6032 0.486927 73.968 0.564426L65.0466 1.66269C62.8663 1.93116 61.2746 3.82156 61.3319 5.9744L59.0821 6.25136L52.1155 2.33086C51.129 1.77508 50.0106 1.53641 48.8813 1.64015C48.879 1.64031 48.8767 1.64093 48.8744 1.64108L46.7774 1.83498C46.1406 1.8938 45.6722 2.45776 45.7312 3.09458C45.79 3.73125 46.353 4.19887 46.9908 4.14082L49.0936 3.9463C49.7516 3.88547 50.4037 4.02472 50.9792 4.34862L58.2023 8.41347C58.4283 8.5626 58.7034 8.63084 58.9816 8.59672L61.5946 8.27515L63.5113 23.8434L64.174 29.2273L60.0062 29.2307C59.7283 29.2308 59.46 29.331 59.2502 29.5124L58.9277 29.7635L48.4641 20.7451C50.8553 20.0577 53.1347 18.3948 55.2659 15.7776C55.6696 15.2817 55.5951 14.5524 55.0992 14.1486C54.6033 13.7449 53.8739 13.8194 53.4702 14.3153C51.0881 17.2408 48.5834 18.7467 46.0256 18.7908C42.2993 18.8609 39.5614 15.7711 39.5362 15.7423C39.3085 15.4789 38.9747 15.3331 38.6267 15.3416C38.2788 15.3515 37.9538 15.5176 37.7417 15.7935L34.6313 19.8414C32.9926 21.9743 30.2009 22.7691 27.6844 21.8184L27.3523 21.6929C27.0607 21.5826 26.9418 21.3548 26.897 21.2287C26.8522 21.1025 26.8004 20.8507 26.9569 20.5812L35.0749 6.6086C35.5999 5.70485 36.5349 5.10786 37.5757 5.01153L42.3821 4.56707C43.0189 4.50809 43.4873 3.94414 43.4283 3.30747C43.3693 2.6708 42.8054 2.20256 42.1687 2.26123L37.3624 2.70569C35.5769 2.87088 33.9732 3.89504 33.0724 5.44534L24.9544 19.4179C24.4975 20.2046 24.4101 21.1474 24.715 22.0047C25.0199 22.862 25.683 23.5379 26.5339 23.8593L26.866 23.9848C27.8454 24.3547 28.8546 24.5333 29.8503 24.5333C32.3904 24.5332 34.8404 23.3701 36.4676 21.2524L38.7881 18.2324C40.0316 19.3041 42.3515 20.8915 45.3128 21.0865L60.4337 34.1187C60.7055 34.3529 60.87 34.679 60.8965 35.0368C60.9231 35.3947 60.8088 35.7416 60.5749 36.0131L59.9857 36.6966C59.2454 37.554 57.9441 37.6492 57.0852 36.9093C57.0371 36.8679 56.986 36.8324 56.9337 36.8003L53.0084 33.4157C52.5244 32.9982 51.7931 33.0522 51.3754 33.5365C50.9578 34.0208 51.012 34.752 51.4963 35.1696L54.6861 37.92L53.231 39.6087C52.7839 40.1272 52.1112 40.3892 51.432 40.3094C51.0255 40.2615 50.645 40.0934 50.3316 39.8231C50.326 39.8183 50.32 39.8143 50.3145 39.8097L46.6672 36.6649C46.1829 36.2475 45.4519 36.3015 45.0342 36.7858C44.6166 37.2701 44.6708 38.0012 45.155 38.4188L47.9422 40.8221L46.4786 42.522C46.0313 43.0407 45.357 43.3027 44.6777 43.2227C44.0424 43.1477 43.4672 43.6025 43.3926 44.2375C43.3181 44.8726 43.7723 45.448 44.4074 45.5225C44.5789 45.5426 44.7499 45.5526 44.9204 45.5526C46.1848 45.5526 47.395 45.005 48.2329 44.0335L49.7978 42.2163C50.2252 42.4201 50.6848 42.5533 51.1616 42.6094C52.6066 42.7792 54.035 42.2226 54.9851 41.1207L56.5525 39.3016C58.2859 40.1238 60.4269 39.7294 61.7391 38.2092L62.3292 37.5248C62.9671 36.7842 63.2785 35.8396 63.2061 34.865C63.1337 33.8902 62.6858 33.0021 61.9457 32.3646L60.9953 31.5456L64.4691 31.5427C64.8487 33.5435 66.6094 34.9852 68.6242 34.9852C68.7959 34.9852 68.9699 34.9748 69.1445 34.9533L78.0659 33.855C78.7005 33.7767 79.1518 33.1991 79.0737 32.5642Z" fill="#C2A38F"/>
<path d="M71.6724 24.2055C69.7997 24.2055 68.2761 25.729 68.2761 27.6016C68.2761 29.4743 69.7997 30.9979 71.6724 30.9979C73.545 30.9979 75.0685 29.4743 75.0685 27.6016C75.0685 25.729 73.545 24.2055 71.6724 24.2055ZM71.6724 28.6821C71.0766 28.6821 70.5918 28.1974 70.5918 27.6016C70.5918 27.0059 71.0766 26.5213 71.6724 26.5213C72.2681 26.5213 72.7527 27.0059 72.7527 27.6016C72.7527 28.1974 72.2681 28.6821 71.6724 28.6821Z" fill="#C2A38F"/>
<path d="M10.7204 27.6018C10.7204 25.7291 9.19696 24.2057 7.32431 24.2057C5.45166 24.2057 3.92822 25.7291 3.92822 27.6018C3.92822 29.4744 5.45166 30.998 7.32431 30.998C9.19696 30.998 10.7204 29.4744 10.7204 27.6018ZM6.24395 27.6018C6.24395 27.006 6.72855 26.5214 7.32431 26.5214C7.92007 26.5214 8.40468 27.006 8.40468 27.6018C8.40468 28.1975 7.92007 28.6823 7.32431 28.6823C6.72855 28.6823 6.24395 28.1975 6.24395 27.6018Z" fill="#C2A38F"/>
</svg>
