<svg width="76" height="76" viewBox="0 0 76 76" fill="none" xmlns="http://www.w3.org/2000/svg">
<g clip-path="url(#clip0)">
<path d="M32.9029 63.3291C32.5779 56.9954 29.0835 51.252 23.6081 48.0518L14.858 38.3301C13.9739 37.3394 12.7186 36.7598 11.3911 36.7291C10.9673 36.7235 10.5444 36.7734 10.1333 36.8773V20.2624C10.1333 17.4642 7.86489 15.1957 5.06667 15.1957C2.26844 15.1957 0 17.4642 0 20.2624V44.2366C0.00110833 46.1748 0.49495 48.0809 1.43513 49.7757L12.6667 69.9905V75.9957H15.2V69.6624C15.2003 69.4474 15.1454 69.2359 15.0404 69.0481L3.64927 48.5433C2.91872 47.2253 2.53476 45.7435 2.53333 44.2366V20.2624C2.53333 18.8632 3.66747 17.7291 5.06667 17.7291C6.46586 17.7291 7.6 18.8632 7.6 20.2624V38.4429C6.01508 40.2848 6.0515 43.019 7.68487 44.818L18.0627 56.2357L19.9373 54.5321L9.55953 43.1131C8.73113 42.2042 8.7647 40.8044 9.63553 39.9363C10.0857 39.495 10.6937 39.2524 11.324 39.2624C11.9542 39.2782 12.5498 39.5531 12.9707 40.0224L21.8589 49.9024C21.9719 50.0158 22.0997 50.1133 22.2389 50.1925C27.278 53.0805 30.3902 58.4407 30.4 64.2487V75.9957H32.9333V63.3291H32.9029Z" fill="#C2A38F"/>
<path d="M70.9333 15.1957C68.1351 15.1957 65.8666 17.4642 65.8666 20.2624V36.8798C64.1443 36.435 62.3181 36.9956 61.142 38.3301L52.3957 48.0493C46.9126 51.2432 43.4143 56.9915 43.097 63.3291H43.0667V75.9957H45.6V64.2487C45.613 58.4169 48.7491 53.0392 53.8181 50.1557C53.9389 50.0894 54.048 50.0039 54.1411 49.9024L63.0242 40.0224C63.4451 39.5531 64.0407 39.2782 64.6709 39.2624C65.3017 39.2496 65.9107 39.4928 66.3594 39.9363C67.2302 40.8044 67.2638 42.2042 66.4354 43.1131L56.0626 54.5295L57.9373 56.2357L68.3151 44.8205C69.9501 43.0211 69.9863 40.2851 68.4 38.4429V20.2624C68.4 18.8632 69.5341 17.7291 70.9333 17.7291C72.3325 17.7291 73.4666 18.8632 73.4666 20.2624V44.1023C73.4647 45.6952 73.0361 47.2584 72.2253 48.6294L60.952 69.0506C60.8505 69.2386 60.7982 69.449 60.8 69.6624V75.9957H63.3333V69.9892L74.4255 49.8834C75.4559 48.131 75.9995 46.1352 76 44.1023V20.2624C76 17.4642 73.7315 15.1957 70.9333 15.1957Z" fill="#C2A38F"/>
<path d="M59.4889 12.3305C59.4788 12.2951 59.4598 12.2647 59.4471 12.2292C59.4246 12.1598 59.3963 12.0924 59.3622 12.0278C59.3407 11.9923 59.3116 11.9632 59.2875 11.929C59.2496 11.8717 59.2072 11.8175 59.1608 11.7669C59.133 11.739 59.0975 11.7187 59.0671 11.6934C59.0172 11.6465 58.9634 11.6042 58.9062 11.5667H58.8936L38.6269 0.166722C38.2415 -0.0498775 37.7709 -0.0498775 37.3856 0.166722L17.1189 11.5667H17.1062C17.0491 11.6042 16.9952 11.6465 16.9454 11.6934C16.915 11.7187 16.8795 11.739 16.8516 11.7669C16.8052 11.8175 16.7628 11.8717 16.725 11.929C16.7009 11.9632 16.6718 11.9923 16.6502 12.0278C16.6162 12.0924 16.5878 12.1597 16.5654 12.2292C16.5527 12.2647 16.5337 12.2951 16.5236 12.3305C16.4898 12.4382 16.4707 12.5497 16.4666 12.6624V35.1369C16.467 35.5889 16.7083 36.0064 17.0999 36.2325L37.3666 47.9581C37.4427 47.9994 37.5228 48.0325 37.606 48.0569C37.63 48.0645 37.6516 48.0784 37.6744 48.0847C37.8876 48.1422 38.1121 48.1422 38.3254 48.0847C38.3482 48.0784 38.3698 48.0645 38.3938 48.0569C38.4769 48.0325 38.5571 47.9994 38.6332 47.9581L58.8999 36.2325C59.2914 36.0064 59.5327 35.5889 59.5332 35.1369V12.6624C59.5332 12.5503 59.5183 12.4387 59.4889 12.3305ZM37.9999 2.71526L44.9868 6.64192L27.3042 16.5891L20.3172 12.6624L37.9999 2.71526ZM36.7332 44.6673L18.9999 34.4073V14.8284L36.7332 24.8034V44.6673ZM37.9999 22.6095L29.8932 18.0457L47.5696 8.10239L55.6826 12.6624L37.9999 22.6095ZM56.9999 34.406L39.2666 44.666V24.8034L56.9999 14.8284V34.406Z" fill="#C2A38F"/>
<path d="M54.4667 31.6624H51.9333V34.1957H54.4667V31.6624Z" fill="#C2A38F"/>
<path d="M49.4 34.1957H46.8667V36.7291H49.4V34.1957Z" fill="#C2A38F"/>
<path d="M44.3334 36.7291H41.8V39.2624H44.3334V36.7291Z" fill="#C2A38F"/>
</g>
<defs>
<clipPath id="clip0">
<rect width="76" height="76" fill="white"/>
</clipPath>
</defs>
</svg>
