<svg width="14" height="14" viewBox="0 0 14 14" fill="none" xmlns="http://www.w3.org/2000/svg">
<path d="M13.9921 11.0486C13.9587 10.8421 13.8293 10.6657 13.6355 10.5608L10.7685 8.87115L10.7449 8.85795C10.6247 8.79776 10.4919 8.76691 10.3575 8.76792C10.1173 8.76792 9.88786 8.85895 9.72866 9.01859L8.88246 9.86543C8.84626 9.89984 8.72826 9.94966 8.69246 9.95146C8.68266 9.95066 7.70786 9.88044 5.91325 8.08512C4.12185 6.29361 4.04585 5.31553 4.04525 5.31553C4.04625 5.26551 4.09545 5.14788 4.13045 5.11147L4.85205 4.38986C5.10625 4.13499 5.18245 3.71247 5.03165 3.38517L3.43804 0.385711C3.32224 0.147242 3.09724 0 2.84764 0C2.67104 0 2.50064 0.0732211 2.36744 0.206259L0.400435 2.16942C0.211834 2.35708 0.0494334 2.68517 0.0140333 2.94925C-0.00316673 3.07548 -0.352168 6.08875 3.77784 10.2205C7.28405 13.7273 10.0181 13.9998 10.7731 13.9998C10.865 14.001 10.9569 13.9963 11.0483 13.9856C11.3115 13.9504 11.6391 13.7884 11.8265 13.6005L13.7919 11.6347C13.9523 11.4735 14.0255 11.2604 13.9921 11.0486Z" fill="#C2A38F"/>
</svg>
