<svg width="70" height="70" viewBox="0 0 70 70" fill="none" xmlns="http://www.w3.org/2000/svg">
<g clip-path="url(#clip0)">
<path d="M12.7356 53.664C11.7765 53.664 10.8546 53.9034 10.0366 54.3528C5.72794 48.8295 3.36296 41.9682 3.36296 34.9391C3.36296 17.5277 17.5277 3.3629 34.9392 3.3629C37.0559 3.3629 39.1716 3.57353 41.2277 3.98903C41.951 4.13537 42.6576 3.66708 42.804 2.94269C42.9503 2.21831 42.482 1.51273 41.7576 1.36587C39.5275 0.915347 37.2336 0.686951 34.9392 0.686951C25.7903 0.686951 17.1885 4.24983 10.7192 10.7192C4.24989 17.1885 0.687012 25.7902 0.687012 34.9391C0.687012 42.6351 3.30025 50.1455 8.0579 56.1664C7.44536 57.0816 7.11609 58.1572 7.11609 59.2835C7.11609 60.7845 7.70093 62.1957 8.76243 63.2566C9.8234 64.3181 11.2345 64.903 12.7356 64.903C14.2366 64.903 15.6478 64.3181 16.7093 63.2566C17.7708 62.1957 18.3551 60.784 18.3551 59.283C18.3551 57.7824 17.7708 56.3708 16.7093 55.3098C15.6478 54.2483 14.2366 53.664 12.7356 53.664ZM14.8168 61.3647C14.2612 61.9208 13.5216 62.227 12.7356 62.227C11.9495 62.227 11.2105 61.9208 10.6544 61.3647C10.0983 60.8086 9.79204 60.0695 9.79204 59.2835C9.79204 58.4969 10.0983 57.7579 10.6544 57.2018C11.21 56.6457 11.9495 56.3399 12.7356 56.3399C13.5216 56.3399 14.2607 56.6462 14.8168 57.2018C15.3729 57.7579 15.6791 58.4969 15.6791 59.2835C15.6791 60.0695 15.3729 60.8086 14.8168 61.3647Z" fill="#F8F5F2"/>
<path d="M61.8194 13.7103C63.274 11.5282 63.0403 8.54494 61.1165 6.62108C60.055 5.56011 58.6438 4.97527 57.1428 4.97527C55.6417 4.97527 54.2306 5.56011 53.1691 6.62108C52.1076 7.68258 51.5233 9.09372 51.5233 10.5948C51.5233 12.0958 52.1076 13.507 53.1691 14.5684C54.2306 15.6299 55.6417 16.2143 57.1428 16.2143C58.1018 16.2143 59.0238 15.9749 59.8417 15.5254C64.1504 21.0493 66.5154 27.91 66.5154 34.9391C66.5154 52.3506 52.3506 66.5153 34.9392 66.5153C32.8434 66.5153 30.7475 66.3089 28.7108 65.9012C27.9864 65.7565 27.2814 66.2263 27.1361 66.9507C26.9913 67.6756 27.4611 68.3801 28.1855 68.5254C30.3948 68.9671 32.6672 69.1913 34.9392 69.1913C44.0881 69.1913 52.6898 65.6284 59.1592 59.1591C65.6285 52.6898 69.1914 44.0881 69.1914 34.9391C69.1914 27.2426 66.5776 19.7317 61.8194 13.7103ZM55.0616 12.6765C54.5055 12.1204 54.1992 11.3813 54.1992 10.5948C54.1992 9.8087 54.5055 9.06968 55.0616 8.51358C55.6172 7.95749 56.3567 7.65122 57.1428 7.65122C57.9288 7.65122 58.6684 7.95749 59.2245 8.51358C60.3717 9.66132 60.3717 11.5287 59.2245 12.6765C58.6684 13.232 57.9288 13.5383 57.1428 13.5383C56.3562 13.5383 55.6172 13.232 55.0616 12.6765Z" fill="#F8F5F2"/>
<path d="M29.4179 57.9523C29.4179 58.6913 30.0174 59.2903 30.7559 59.2903H39.1219C39.8609 59.2903 40.4599 58.6913 40.4599 57.9523V55.3584C42.2191 54.8849 43.901 54.1877 45.4815 53.2772L47.3128 55.1086C47.5637 55.3595 47.9039 55.5006 48.2593 55.5006C48.6137 55.5006 48.9545 55.3595 49.2053 55.1081L55.1186 49.1907C55.6407 48.668 55.6407 47.8208 55.1186 47.2987L53.2893 45.4694C54.1997 43.8889 54.897 42.207 55.3705 40.4478H57.9544C58.6935 40.4478 59.2924 39.8489 59.2924 39.1098V30.7438C59.2924 30.0048 58.6935 29.4059 57.9544 29.4059H55.37C54.8964 27.6472 54.1997 25.9653 53.2893 24.3848L55.1086 22.5655C55.3595 22.3146 55.5006 21.9738 55.5006 21.6189C55.5001 21.2641 55.359 20.9233 55.1081 20.6724L49.1902 14.7592C48.6681 14.2371 47.8208 14.2371 47.2982 14.7597L45.4815 16.577C43.901 15.6665 42.2191 14.9693 40.4599 14.4958V11.9259C40.4599 11.1869 39.8609 10.588 39.1219 10.588H30.7559C30.0174 10.588 29.4179 11.1869 29.4179 11.9259V14.4963C27.6592 14.9693 25.9774 15.6665 24.3969 16.577L22.5796 14.7597C22.0575 14.2376 21.2103 14.2371 20.6877 14.7592L14.7702 20.673C14.5189 20.9238 14.3777 21.2641 14.3777 21.6189C14.3777 21.9738 14.5189 22.3146 14.7697 22.5655L16.5891 24.3848C15.6786 25.9653 14.9814 27.6466 14.5079 29.4059H11.9286C11.1896 29.4059 10.5906 30.0048 10.5906 30.7433L10.5859 39.1093C10.5854 39.4642 10.7265 39.805 10.9774 40.0558C11.2283 40.3067 11.5685 40.4478 11.9239 40.4478H14.5079C14.9814 42.207 15.6786 43.8889 16.5891 45.4694L14.7598 47.2987C14.2377 47.8208 14.2371 48.668 14.7598 49.1907L20.673 55.1081C20.9239 55.3589 21.2641 55.5006 21.619 55.5006H21.6195C21.9744 55.5006 22.3147 55.3595 22.5655 55.1086L24.3964 53.2772C25.9774 54.1877 27.6592 54.8849 29.4179 55.3584V57.9523ZM24.9211 50.4633C24.3916 50.121 23.695 50.1952 23.2486 50.641L21.6195 52.2701L17.5978 48.2452L19.2253 46.6171C19.6711 46.1713 19.7453 45.4746 19.403 44.9452C18.1899 43.0678 17.337 41.0102 16.8687 38.8287C16.7359 38.2125 16.1913 37.7719 15.5605 37.7719H13.2624L13.2655 32.0818H15.5605C16.1913 32.0818 16.7359 31.6417 16.8687 31.025C17.337 28.844 18.1899 26.7864 19.403 24.909C19.7453 24.3796 19.6711 23.6829 19.2253 23.2371L17.6082 21.6195L21.6331 17.5977L23.2486 19.2137C23.695 19.6595 24.3911 19.7332 24.9211 19.3914C26.7979 18.1784 28.8556 17.3254 31.0371 16.8571C31.6533 16.7244 32.0939 16.1792 32.0939 15.5489V13.2639H37.7839V15.5484C37.7839 16.1792 38.224 16.7244 38.8407 16.8566C41.0217 17.3254 43.0799 18.1778 44.9567 19.3909C45.4862 19.7332 46.1829 19.6595 46.6287 19.2132L48.2447 17.5977L52.2696 21.6195L50.6525 23.2365C50.2062 23.6829 50.1325 24.3796 50.4748 24.909C51.6879 26.7864 52.5403 28.844 53.0092 31.025C53.1414 31.6417 53.6865 32.0818 54.3173 32.0818H56.6165V37.7719H54.3173C53.6865 37.7719 53.1419 38.2125 53.0092 38.8287C52.5409 41.0097 51.6879 43.0678 50.4748 44.9447C50.1325 45.4746 50.2067 46.1713 50.6525 46.6171L52.2801 48.2447L48.2583 52.2696L46.6292 50.641C46.1829 50.1947 45.4862 50.121 44.9567 50.4633C43.0794 51.6764 41.0217 52.5288 38.8407 52.9976C38.224 53.1304 37.7839 53.675 37.7839 54.3058V56.6143H32.0939V54.3058C32.0939 53.6755 31.6533 53.1304 31.0371 52.9976C28.8561 52.5293 26.7984 51.6764 24.9211 50.4633Z" fill="#F8F5F2"/>
<path d="M45.9946 34.9391C45.9946 28.843 41.0352 23.8836 34.9391 23.8836C28.8429 23.8836 23.8835 28.843 23.8835 34.9391C23.8835 41.0353 28.8429 45.9947 34.9391 45.9947C41.0352 45.9947 45.9946 41.0353 45.9946 34.9391ZM26.5595 34.9391C26.5595 30.3184 30.3184 26.5595 34.9391 26.5595C39.5598 26.5595 43.3187 30.3189 43.3187 34.9391C43.3187 39.5593 39.5598 43.3187 34.9391 43.3187C30.3184 43.3187 26.5595 39.5598 26.5595 34.9391Z" fill="#F8F5F2"/>
<path d="M47.2591 5.74722C47.6114 5.74722 47.9563 5.60402 48.2051 5.35524C48.4539 5.10489 48.5971 4.75994 48.5971 4.40768C48.5971 4.0575 48.4544 3.71204 48.2051 3.46169C47.9563 3.21291 47.6114 3.0697 47.2591 3.0697C46.9058 3.0697 46.5624 3.21291 46.3136 3.46169C46.0643 3.71204 45.9211 4.05594 45.9211 4.40768C45.9211 4.76099 46.0643 5.10489 46.3136 5.35524C46.5624 5.60402 46.9058 5.74722 47.2591 5.74722Z" fill="#F8F5F2"/>
<path d="M22.6778 64.1551C22.3261 64.1551 21.9806 64.2983 21.7318 64.5471C21.483 64.7959 21.3398 65.1413 21.3398 65.4931C21.3398 65.8464 21.483 66.1903 21.7318 66.4391C21.9806 66.6878 22.3261 66.831 22.6778 66.831C23.0296 66.831 23.375 66.6878 23.6238 66.4391C23.8726 66.1903 24.0158 65.8448 24.0158 65.4931C24.0158 65.1413 23.8726 64.7959 23.6238 64.5471C23.375 64.2983 23.0296 64.1551 22.6778 64.1551Z" fill="#F8F5F2"/>
</g>
<defs>
<clipPath id="clip0">
<rect width="68.5043" height="68.5043" fill="white" transform="translate(0.687012 0.686951)"/>
</clipPath>
</defs>
</svg>
