<svg width="70" height="64" viewBox="0 0 70 64" fill="none" xmlns="http://www.w3.org/2000/svg">
<path d="M61.8333 9.83333H56.6242L52.458 3.5835C52.2509 1.82911 50.7666 0.50552 49 0.5H21C19.2334 0.50552 17.7491 1.82911 17.542 3.5835L13.3758 9.83333H8.16667C3.65847 9.83848 0.00514341 13.4918 0 18V57.6667C0.00385714 60.8867 2.61327 63.4961 5.83333 63.5H64.1667C67.3867 63.4961 69.9961 60.8867 70 57.6667V18C69.9949 13.4918 66.3415 9.83848 61.8333 9.83333ZM21 2.83333H49C49.6443 2.83333 50.1667 3.35567 50.1667 4C50.1667 4.64433 49.6443 5.16667 49 5.16667H21C20.3557 5.16667 19.8333 4.64433 19.8333 4C19.8333 3.35567 20.3557 2.83333 21 2.83333ZM18.4672 6.40217C19.124 7.10163 20.0405 7.49887 21 7.5H49C49.9595 7.49887 50.876 7.10163 51.5328 6.40217L53.8207 9.83333H16.1793L18.4672 6.40217ZM61.8333 12.1667C62.5413 12.1712 63.2424 12.3056 63.9018 12.5633C63.3143 13.4919 63.0016 14.5678 63 15.6667V36.6667C63 37.311 62.4777 37.8333 61.8333 37.8333H41.1145C41.6133 36.6067 41.9042 35.3056 41.9755 33.9833C42.3055 30.0399 39.4054 26.5632 35.4667 26.1807C33.5315 26.0443 31.6277 26.7242 30.2167 28.0555C28.8054 29.3813 28.0035 31.2304 28 33.1667C27.981 34.7654 28.2808 36.3518 28.882 37.8333H8.16667C7.52233 37.8333 7 37.311 7 36.6667V15.6667C6.99835 14.5678 6.68569 13.4919 6.09817 12.5633C6.75757 12.3056 7.4587 12.1712 8.16667 12.1667H61.8333ZM30.3333 33.1667C30.3331 31.8749 30.8682 30.6408 31.8114 29.7582C32.7546 28.8756 34.0214 28.4234 35.3103 28.5093C37.9535 28.8358 39.8669 31.1917 39.6445 33.8457C39.6043 34.6377 39.4652 35.4216 39.2303 36.179C38.626 35.0474 37.4495 34.3386 36.1667 34.3333H33.8333C32.5512 34.3379 31.3749 35.0452 30.7697 36.1755C30.4679 35.2015 30.3207 34.1862 30.3333 33.1667ZM37.3333 42.5H32.6667V37.8333C32.6667 37.189 33.189 36.6667 33.8333 36.6667H36.1667C36.811 36.6667 37.3333 37.189 37.3333 37.8333V42.5ZM38.5 44.8333V47.1667H31.5V44.8333H38.5ZM32.6667 49.5H37.3333V54.1667C37.3333 55.4553 36.2887 56.5 35 56.5C33.7113 56.5 32.6667 55.4553 32.6667 54.1667V49.5ZM67.6667 57.6667C67.6667 59.5997 66.0997 61.1667 64.1667 61.1667H5.83333C3.90034 61.1667 2.33333 59.5997 2.33333 57.6667V18C2.33473 16.421 2.97875 14.9105 4.11717 13.8163C4.47154 14.3688 4.66207 15.0103 4.66667 15.6667V36.6667C4.66667 38.5997 6.23367 40.1667 8.16667 40.1667H29.8667C30.1708 40.9072 30.3293 41.6995 30.3333 42.5V42.8243C29.6138 43.2378 29.1692 44.0035 29.1667 44.8333V47.1667C29.1692 47.9965 29.6138 48.7622 30.3333 49.1757V54.1667C30.3333 56.744 32.4227 58.8333 35 58.8333C37.5773 58.8333 39.6667 56.744 39.6667 54.1667V49.1757C40.3862 48.7622 40.8308 47.9965 40.8333 47.1667V44.8333C40.8308 44.0035 40.3862 43.2378 39.6667 42.8243V42.5C39.671 41.6995 39.8294 40.9073 40.1333 40.1667H61.8333C63.7663 40.1667 65.3333 38.5997 65.3333 36.6667V15.6667C65.3379 15.0103 65.5285 14.3688 65.8828 13.8163C67.0212 14.9105 67.6653 16.421 67.6667 18V57.6667Z" fill="#C2A38F"/>
<path d="M8.16651 56.5H5.83317C5.18884 56.5 4.6665 57.0223 4.6665 57.6667C4.6665 58.311 5.18884 58.8333 5.83317 58.8333H8.16651C8.81084 58.8333 9.33317 58.311 9.33317 57.6667C9.33317 57.0223 8.81084 56.5 8.16651 56.5Z" fill="#C2A38F"/>
<path d="M26.8332 56.5H12.8332C12.1888 56.5 11.6665 57.0223 11.6665 57.6667C11.6665 58.311 12.1888 58.8333 12.8332 58.8333H26.8332C27.4775 58.8333 27.9998 58.311 27.9998 57.6667C27.9998 57.0223 27.4775 56.5 26.8332 56.5Z" fill="#C2A38F"/>
<path d="M64.1665 56.5H61.8332C61.1888 56.5 60.6665 57.0223 60.6665 57.6667C60.6665 58.311 61.1888 58.8333 61.8332 58.8333H64.1665C64.8108 58.8333 65.3332 58.311 65.3332 57.6667C65.3332 57.0223 64.8108 56.5 64.1665 56.5Z" fill="#C2A38F"/>
<path d="M57.1667 56.5H43.1667C42.5223 56.5 42 57.0223 42 57.6667C42 58.311 42.5223 58.8333 43.1667 58.8333H57.1667C57.811 58.8333 58.3333 58.311 58.3333 57.6667C58.3333 57.0223 57.811 56.5 57.1667 56.5Z" fill="#C2A38F"/>
</svg>
