<svg width="155" height="122" viewBox="0 0 155 122" fill="none" xmlns="http://www.w3.org/2000/svg">
<path d="M19.4097 59.6899C18.6711 28.191 43.5898 2.0756 75.0887 1.33697C106.588 0.598345 132.703 25.5171 133.442 57.016C134.18 88.5149 109.262 114.63 77.7627 115.369C46.2638 116.108 20.1484 91.1889 19.4097 59.6899Z" fill="#BDA58B"/>
<path d="M74.7661 6.73487C46.542 7.39671 24.1289 31.0709 24.796 59.5168C25.048 70.263 28.5436 80.1741 34.3403 88.3026C40.353 96.7211 48.7892 103.228 58.5798 106.835C72.0649 105.633 84.6547 105.507 95.7919 105.878C105.361 101.817 113.441 94.9229 119.011 86.2328C124.378 77.8426 127.406 67.8206 127.155 57.1165C126.488 28.6707 102.99 6.07304 74.7661 6.73487ZM110.662 85.2479C102.869 95.466 90.7261 102.16 77.0113 102.481C63.2547 102.804 50.8103 96.6446 42.5469 86.803C36.3061 79.3596 32.442 69.7944 32.197 59.3432C31.6258 34.9852 50.8137 14.7176 74.9819 14.1509C99.1501 13.5842 119.225 32.931 119.796 57.2891C120 67.7834 116.589 77.5192 110.662 85.2479Z" fill="#3A2412"/>
<path d="M73.4481 46.1161C73.5461 45.033 73.6862 43.9921 73.7841 42.909C73.7811 42.7793 73.8602 42.6478 73.8973 42.474C74.0236 42.6007 74.19 42.6833 74.2752 42.811C75.0073 44.2205 75.8216 45.6281 76.4314 47.0837C76.648 47.5542 76.581 48.2043 76.3877 48.7276C76.2725 49.0762 75.7834 49.2606 75.4607 49.5276C75.2892 49.229 75.1188 48.9736 74.9473 48.6749C74.8199 48.505 74.7327 48.2909 74.5653 48.1651C74.4821 48.1238 74.2786 48.2151 74.1553 48.218C74.727 49.8042 73.1253 49.885 72.6103 50.7185C72.4911 50.8942 72.2465 50.9864 72.1273 51.1621C71.967 51.3388 71.8908 51.6 71.7726 51.819C71.9781 51.8141 72.1856 51.8957 72.3901 51.8477C73.0045 51.7468 73.6539 51.3857 74.2313 51.4587C75.1806 51.6093 76.2962 51.8426 76.9269 52.4331C78.0618 53.4873 79.2165 53.6331 80.6128 53.5572C80.9416 53.5495 81.3165 53.7568 81.6483 53.8787C81.6082 53.9229 81.526 53.9248 81.486 53.969C81.4459 54.0132 81.4469 54.0564 81.4479 54.0996C81.487 54.0122 81.5671 53.9239 81.6062 53.8365C82.4302 53.9036 82.5763 53.122 82.9761 52.6371C83.2958 52.2405 83.5312 51.7594 83.894 51.4483C84.0954 51.2706 84.5074 51.3042 84.793 51.211C84.759 51.5144 84.8103 51.9456 84.6098 52.1664C83.5337 53.6184 82.4976 55.0261 80.7457 55.7157C79.3195 56.268 78.0257 57.2062 77.4487 58.9058C77.3726 59.167 77.1311 59.3888 76.9297 59.5665C76.8495 59.6548 76.605 59.747 76.5618 59.6616C76.4355 59.5348 76.3071 59.3217 76.3041 59.1921C76.4863 58.1934 76.7918 57.1919 76.8917 56.1952C77.0247 54.8518 76.2728 54.3507 75.0511 54.8549C72.8111 55.7721 72.7289 55.774 71.2018 53.7778C70.6924 53.0981 69.6128 52.6478 69.9954 51.4283C69.3657 50.881 69.2744 50.4941 70.1704 50.1272C70.415 50.035 70.6905 49.5097 70.6474 49.4243C70.4749 49.0825 70.136 48.6581 69.8052 48.5794C69.1436 48.4219 68.4069 48.5689 67.7062 48.4989C67.3354 48.4643 66.9995 48.1696 66.6667 48.0045C66.8712 47.9564 67.0746 47.8652 67.238 47.8181C67.0305 47.7365 66.8651 47.6972 66.6576 47.6156C66.6155 47.5733 66.5733 47.5311 66.5312 47.4888C66.5733 47.5311 66.6555 47.5292 66.6977 47.5714C66.7017 47.7442 66.7058 47.9171 66.7088 48.0467C64.6799 47.4458 63.7875 46.2129 63.8591 44.0064C63.883 43.2708 63.9489 42.5776 63.9738 41.8852C64.054 41.7969 64.0921 41.6663 64.1722 41.578C64.1342 41.7085 64.054 41.7969 64.0159 41.9275C63.5918 41.3754 63.1276 40.8675 62.7435 40.2712C62.3595 39.675 62.0957 38.9462 61.7517 38.3057C61.6223 38.0494 61.3717 37.8823 61.1622 37.7143C61.1693 38.0168 61.2185 38.3615 61.2256 38.6639C61.2286 38.7936 61.2316 38.9232 61.1936 39.0538C61.0693 39.0135 60.946 39.0164 60.8618 38.9319C59.9815 38.2176 59.6295 37.2314 59.5199 36.0667C59.4393 34.3825 59.3591 34.4709 57.8746 34.2895C57.0496 34.1791 56.2998 33.7644 55.5108 33.437C55.4276 33.3957 55.4556 32.8331 55.5768 32.7437C56.6631 31.7239 57.9741 31.5202 59.3034 32.0943C61.588 33.0784 63.8362 32.5068 66.1274 32.0208C66.2497 31.9747 66.3298 31.8863 66.4511 31.797C66.3248 31.6703 66.1954 31.4139 66.03 31.3746C62.4866 31.0685 58.9351 30.4169 55.379 31.3217C55.1745 31.3697 54.9249 31.2459 54.6763 31.1652C54.7956 30.9895 54.8727 30.7715 55.034 30.638C56.854 29.3416 58.7282 28.6059 60.9676 29.4181C62.1285 29.8232 63.4476 29.9652 64.6866 30.1955C64.9342 30.233 65.2609 30.1388 65.5075 30.133C65.2168 30.0102 64.925 29.8441 64.6343 29.7212C64.3857 29.6405 64.096 29.5609 63.8073 29.5244C63.2289 29.4083 62.4933 29.5985 62.1863 28.7842C62.8018 28.7266 63.4132 28.4961 63.9905 28.569C67.7424 28.9998 71.4243 29.9511 74.994 31.3805C75.9905 31.7895 75.0854 31.7675 74.885 31.9884C74.8038 32.0335 74.854 32.4214 74.9793 32.5049C75.9438 33.3038 75.8037 34.3446 75.4972 35.303C75.1537 36.4351 74.5002 36.6233 73.4556 35.9129C72.8701 35.4943 72.5855 35.6306 72.31 36.1559C71.32 37.7787 71.6061 39.4581 72.4224 40.9522C73.2828 42.5748 73.609 44.2101 73.405 46.0307C73.3649 46.0748 73.3248 46.119 73.2847 46.1632C73.4091 46.2035 73.408 46.1603 73.4481 46.1161ZM64.9786 35.6361C65.3738 36.7076 65.7269 37.737 66.1602 38.6779C66.2474 38.8921 66.7446 39.0533 67.0323 39.0466C67.2378 39.0418 67.5975 38.601 67.5534 38.4723C67.0729 37.2731 66.9172 35.8933 65.7884 35.0983C65.621 34.9725 65.4145 34.9341 65.208 34.8957C65.1319 35.1569 65.0958 35.3739 64.9786 35.6361ZM72.4815 32.9526C72.4526 33.4721 72.4216 33.9051 72.4318 34.3372C72.4338 34.4237 72.6002 34.5062 72.6855 34.6339C72.7976 34.1557 72.9107 33.7207 72.9818 33.2435C72.9808 33.2003 72.7733 33.1187 72.4815 32.9526ZM69.1002 43.062C68.8987 43.2397 68.7785 43.3722 68.6572 43.4615C68.9489 43.6276 69.2006 43.8379 69.4903 43.9175C69.5735 43.9588 69.7318 43.6957 69.852 43.5632C69.6024 43.4394 69.3508 43.2291 69.1002 43.062ZM68.9784 41.3788C68.4802 41.1743 68.2296 41.0072 67.9399 40.9276C67.7745 40.8882 67.5721 41.0227 67.3676 41.0707C67.6603 41.28 67.9541 41.5325 68.2458 41.6986C68.3711 41.7821 68.5725 41.6045 68.9784 41.3788Z" fill="#3A2412"/>
<path d="M82.4775 44.2421C82.2793 44.6463 82.081 45.0506 81.8828 45.4548C81.7885 44.9775 81.5697 44.5032 81.6009 44.0629C81.6446 42.3836 81.7714 40.7024 81.8151 39.0231C81.8029 38.504 81.5831 37.9897 81.3643 37.5153C80.0511 34.6691 81.1869 31.7255 84.1985 30.8158C86.7154 30.0775 89.1031 29.1424 91.4447 28.0086C92.1431 27.6726 92.8867 27.4953 93.6276 27.1983C95.1905 26.5223 96.3285 27.2148 97.4305 28.148C97.6004 28.3038 97.7739 28.6194 97.738 28.86C97.7003 29.0207 97.3294 29.1493 97.0812 29.1951C94.9285 29.5253 92.7759 29.8555 90.5817 30.1866C88.3876 30.5178 86.3255 31.1655 84.4407 32.2886C84.2359 32.4132 84.1179 32.6957 83.9565 32.8993C84.1678 33.0542 84.3801 33.249 84.5896 33.324C85.0492 33.4331 85.5493 33.5013 86.0495 33.5695L86.008 33.5704C86.2599 33.6844 86.5534 33.7974 86.8053 33.9114C86.8893 33.9493 86.9318 33.9883 87.0157 34.0263C88.7388 34.865 90.4846 34.904 92.2995 34.3419C92.877 34.1686 93.5433 34.2329 94.1652 34.1783L94.1227 34.1394C93.2136 36.1186 91.2052 37.2845 89.1197 36.9339C87.8684 36.7235 86.6161 36.4731 85.4054 36.2218C84.7373 36.0776 84.1107 35.9325 83.7529 36.6202C83.3951 37.3078 83.4932 37.9449 84.0461 38.4913C84.8103 39.1927 85.534 39.9349 86.3398 40.6352C87.357 41.4905 87.7984 42.5989 87.9935 43.8331C88.0925 44.51 87.981 45.0721 87.0232 44.9746C86.8147 44.9396 86.607 44.9444 86.4004 44.9893C85.2405 45.1363 85.1188 45.2591 85.0619 46.3792C85.0279 46.6997 85.1194 47.0572 85.0854 47.3776C85.09 47.5773 85.0107 47.739 84.9324 47.9406C84.8041 47.7838 84.6758 47.627 84.5069 47.5111C84.337 47.3552 84.1257 47.2003 83.9143 47.0455C83.8359 47.2471 83.7566 47.4088 83.7198 47.6094C83.6461 48.0107 83.6555 48.4101 83.5403 48.8124C83.4638 49.0939 83.3042 49.3773 83.1862 49.6598C82.9721 49.3851 82.6343 49.1533 82.5862 48.8747C82.4778 47.7984 82.4526 46.7201 82.4282 45.6818C82.4576 45.1616 82.4473 44.7223 82.4775 44.2421C82.4729 44.0424 82.5512 43.8408 82.589 43.6801C82.5522 43.8807 82.5153 44.0814 82.4775 44.2421Z" fill="#3A2412"/>
<path d="M90.7276 78.3496C90.6105 78.6284 90.452 78.9082 90.3348 79.1871C90.0884 79.2323 89.842 79.2775 89.6368 79.3217C89.679 79.3602 89.7633 79.4371 89.7633 79.4371C89.9263 79.3544 90.1297 79.2313 90.2927 79.1486L91.9745 78.7542L91.9323 78.7157C91.8939 78.835 91.8564 78.9936 91.817 79.0734C91.5789 79.4734 91.2987 79.835 91.0597 80.1955C91.6771 80.1416 92.2963 80.1665 92.8706 80.0347C93.445 79.9029 93.9726 79.5356 94.5478 79.4432C95.2055 79.3489 95.3815 79.8181 95.3523 80.3315C95.3222 80.8055 95.0007 81.168 94.5005 80.9431C93.7502 80.6057 93.3069 81.05 92.7775 81.3385C86.3833 84.8015 79.5093 85.3965 72.3859 84.1437C70.7708 83.866 69.284 83.7825 67.737 84.6471C66.4749 85.3472 64.8616 85.1484 63.4481 84.6688C63.3235 84.6322 63.2373 84.4765 63.1109 84.3611C63.3152 84.2775 63.5204 84.2332 63.6834 84.1505C63.8464 84.0678 64.0076 83.9063 64.1697 83.7841L64.1294 83.8245C64.2906 83.663 64.4115 83.5418 64.5727 83.3803L64.5324 83.4207C64.6936 83.2591 64.8145 83.138 64.9757 82.9764L64.9354 83.0168C65.5528 82.9629 66.2105 82.8686 66.8298 82.8935C68.1919 82.9405 69.3425 82.7557 69.5107 81.1347C69.5811 80.6203 69.8715 80.6924 70.205 80.8423C70.4551 80.9548 70.7061 81.1067 70.9562 81.2191C74.5549 83.4223 78.5516 83.2497 82.5821 82.7608C84.3922 82.5606 86.1537 82.046 87.9179 81.6496C88.1231 81.6054 88.2852 81.4833 88.4473 81.3611C88.2403 81.3265 88.0323 81.2525 87.8271 81.2968C87.3746 81.3468 86.8809 81.3979 86.4293 81.4873C86.7938 81.2027 87.1593 80.9575 87.4826 80.6738C87.7253 80.4709 87.9661 80.1892 88.1667 79.9478L88.1264 79.9882C88.3719 79.9036 88.5762 79.8199 88.8216 79.7353C88.5725 79.6622 88.3233 79.5892 88.1162 79.5546L88.1584 79.5931C88.1547 79.4354 88.1519 79.3171 88.1482 79.1594L88.1079 79.1998C88.3516 79.0364 89.1431 79.3728 88.6712 78.595C88.9166 78.5104 89.1621 78.4257 89.3664 78.3421L89.3243 78.3036C89.3673 78.3815 89.4113 78.4988 89.4544 78.5766C89.5762 78.4949 89.698 78.4132 89.7777 78.293L89.7374 78.3334C90.025 78.2872 90.2724 78.2814 90.56 78.2352L90.7276 78.3496Z" fill="#3A2412"/>
<path d="M51.7441 59.381C52.3017 59.812 52.8583 60.2027 53.3747 60.6751C55.3534 62.4455 57.2105 64.4207 59.3528 65.9854C60.7242 67.0029 61.7206 68.1908 62.8022 69.417C64.0568 70.8411 65.5172 72.0584 66.8952 73.3584C67.2405 73.7137 67.668 73.9863 68.0132 74.3416C68.1432 74.5 68.1919 74.7815 68.2809 74.9813C68.0274 74.9468 67.6916 74.9951 67.4783 74.879C66.8366 74.4499 66.2351 73.9392 65.5933 73.5101C65.1649 73.1971 65.1313 73.5613 65.3053 73.7995C65.6113 74.2768 65.4926 74.6025 65.0334 74.7748C63.8223 75.2069 62.5672 75.5594 61.2913 75.0241C60.8657 74.8322 60.3569 74.6826 59.892 74.6128C59.5543 74.5803 59.1774 74.6699 58.7996 74.7191C59.0034 74.4317 59.2502 74.1837 59.4541 73.8963C60.1105 73.1542 61.2317 72.4819 61.2988 71.7536C61.323 70.9859 60.293 70.1622 59.7278 69.4084C59.2507 68.8139 58.7726 68.1792 58.2954 67.5848C58.1663 67.4667 57.9539 67.3909 57.7837 67.3141C57.7463 67.5169 57.709 67.7196 57.7137 67.9214C57.9105 69.128 58.1072 70.3346 58.2618 71.5422C58.3096 71.7833 58.0628 72.0313 57.9843 72.2754C57.8954 72.0756 57.7644 71.8768 57.7166 71.6357C57.3085 70.3937 57.0668 69.067 56.4931 67.95C55.2579 65.5565 53.8562 63.2477 52.5377 60.8966C52.2289 60.2982 52.0071 59.8189 51.7441 59.381Z" fill="#3A2412"/>
<path d="M91.745 63.8333C90.8148 62.8661 90.7457 61.6018 90.4025 60.4231C90.3584 60.2263 90.6637 59.784 90.8993 59.7389C93.5631 58.9248 95.2527 56.9468 96.9807 54.9283C97.8645 53.9186 98.95 53.102 99.9558 52.2476C100.498 51.7998 101.091 51.865 101.615 52.3274C102.139 52.8294 101.837 53.3903 101.57 53.7921C101.039 54.6749 100.785 55.6303 100.73 56.6601C100.701 57.096 100.517 57.6541 100.208 57.9383C99.0478 58.9544 97.8477 59.932 96.5659 60.7928C96.0616 61.1607 95.3124 61.1782 94.6449 61.3126C93.7416 61.492 92.799 61.6723 91.892 61.6936C91.3006 61.7075 91.4629 61.9015 91.5501 62.2555C91.6411 62.7676 91.654 63.3211 91.7055 63.8342L91.745 63.8333Z" fill="#3A2412"/>
<path d="M44.197 43.3345C44.1905 43.0548 44.1472 42.776 44.1783 42.5354C44.3103 41.8927 44.479 41.2492 44.611 40.6065C44.7721 41.2023 44.9689 41.7574 45.0932 42.3541C45.2222 43.1505 45.2786 43.9887 45.3709 44.786C45.417 45.1847 45.4282 45.6641 45.6185 45.9395C45.8474 46.2939 46.2931 46.4833 46.6295 46.7153C46.6945 46.354 46.8689 45.9501 46.8237 45.5914C46.5789 44.5578 46.2973 43.5251 45.9789 42.4932C45.7406 41.7393 45.4656 40.9862 45.2631 40.1914C45.1398 39.6347 45.1606 38.9546 45.7467 38.8609C46.0765 38.8132 46.6399 39.3197 46.833 39.7149C47.1834 40.5462 47.4264 41.4999 47.5949 42.4153C48.0591 44.9628 48.4488 47.4721 48.913 50.0196C49.1249 51.2139 49.5195 52.3639 49.8048 53.5564C49.8444 53.6754 49.7021 53.8786 49.6691 54.0393C49.5579 54.0019 49.4467 53.9646 49.3346 53.8872C46.4725 50.9962 44.3368 47.7284 44.197 43.3345Z" fill="#3A2412"/>
<path d="M64.8133 59.6493C63.8445 59.622 63.3572 60.3841 62.7834 61.0481C62.5789 61.3031 62.1559 61.213 61.8217 61.3209C61.7702 60.9217 61.5925 60.5256 61.6685 60.1735C62.0084 58.514 63.0835 57.6881 64.3795 57.3074C64.7979 57.1975 65.3939 57.4838 65.7387 57.826C67.4193 59.4881 69.3196 59.7438 71.3787 59.5955C72.933 59.4589 74.4908 59.4724 76.0265 60.3372C77.3483 61.0569 78.6829 60.5252 79.9718 59.8444C81.0119 59.3195 82.0952 58.8437 83.1808 58.468C83.4309 58.362 83.7769 58.7543 84.0761 58.9474C83.8704 59.1524 83.7092 59.4565 83.5011 59.5614C81.7108 60.4041 79.9638 61.2958 78.1279 61.9894C76.417 62.6301 74.6454 62.4715 72.8655 61.9627C71.5519 61.5932 70.2032 61.5247 68.8499 61.2562C68.1733 61.1219 67.4931 60.8376 66.8129 60.5533C66.0918 60.32 65.4525 59.9847 64.8133 59.6493Z" fill="#3A2412"/>
<path d="M96.1533 39.3351C96.091 41.8068 95.26 43.9984 93.902 45.9468C93.6695 46.2929 93.1524 46.4754 92.7575 46.7402C92.5471 46.3193 92.2966 45.8992 92.1664 45.4764C92.0361 45.0535 92.1053 44.5834 91.936 44.2041C91.6815 43.6138 91.7918 43.1853 92.2658 42.876C93.5696 42.0362 93.8564 40.5814 94.3065 39.2506C94.3806 38.9933 94.3726 38.6528 94.4869 38.3945C94.7144 37.8355 95.0502 36.7629 95.1715 36.8026C96.0583 36.9948 96.1194 37.8878 96.1784 38.6956C96.1433 38.9094 96.1483 39.1222 96.1533 39.3351Z" fill="#3A2412"/>
<path d="M106.111 64.3489C107.266 62.8974 108.383 61.4899 109.539 60.0815C109.655 59.9492 109.852 59.9015 110.009 59.8115C110.053 60.0262 110.217 60.2382 110.142 60.4127C109.881 61.1526 109.703 61.9769 109.281 62.5911C107.709 64.8726 106.096 67.1119 104.485 69.3942C104.177 69.79 103.869 70.1857 103.601 70.5804C102.644 72.0274 102.644 72.0274 103.591 73.5591C103.715 73.772 103.762 74.0731 103.847 74.3301C103.529 74.2944 103.213 74.3449 102.934 74.2652C102.694 74.1844 102.452 73.9743 102.248 73.7632C101.317 72.9218 101.226 72.4491 101.913 71.3107C102.792 69.9088 103.752 68.5913 104.632 67.2325C104.938 66.7505 105.164 66.2272 105.43 65.7462L105.391 65.7902C105.546 65.614 105.7 65.4377 105.856 65.3045L105.817 65.3486C105.972 65.1723 106.126 64.996 106.242 64.8638L106.203 64.9079C106.242 64.8638 106.36 64.8179 106.359 64.7748C106.357 64.6885 106.315 64.6031 106.273 64.5178L106.111 64.3489Z" fill="#3A2412"/>
<path d="M67.4963 49.1294C67.5891 49.2151 67.7272 49.2997 67.82 49.3854C68.0571 49.8193 68.2046 50.2992 68.487 50.732C68.7231 51.122 68.6355 51.2558 68.2736 51.3083C66.9591 51.383 66.5766 52.4906 65.9147 53.2971C64.3692 55.1349 62.6814 56.7125 60.1988 57.298C59.8823 57.3494 59.6111 57.3997 59.2936 57.4072C59.1575 57.4103 59.0193 57.3257 58.8822 57.285C58.9698 57.1511 59.0121 57.0183 59.1008 56.9283C59.5451 56.5224 60.438 55.8863 60.3442 55.7566C59.5844 54.3243 60.9494 54.4681 61.5752 54.058C63.5857 52.6925 66.2477 52.0149 67.1396 49.4014C67.1808 49.2246 67.3612 49.1765 67.4963 49.1294Z" fill="#3A2412"/>
<path d="M86.1072 33.503C84.9924 32.5968 84.9487 32.5978 86.1199 32.1819C87.1609 31.8079 88.2029 31.4726 89.2457 31.1763C91.764 30.3791 94.2978 30.242 96.6904 31.5455C96.7797 31.6211 96.868 31.6579 96.9136 31.7346C96.4564 32.7553 96.133 33.8895 94.6066 34.0807L94.6512 34.1185C94.4699 33.8508 94.2004 33.5463 94.1503 33.2756C93.939 31.7266 93.9399 31.7654 92.3624 31.647C90.9607 31.5634 89.7885 31.9405 88.7594 32.8193C88.2448 33.2586 87.64 33.5836 87.0799 33.9464C86.9915 33.9096 86.9469 33.8718 86.8585 33.835C86.6363 33.6848 86.3276 33.5755 86.1072 33.503Z" fill="#3A2412"/>
<path d="M108.747 76.6461C108.349 76.3534 107.737 76.1951 107.597 75.8101C107.133 74.5265 106.669 75.1414 106.073 75.6732C105.519 76.1609 104.965 76.6485 104.367 77.094C103.855 77.4944 103.34 77.7654 104.222 78.3056C104.265 78.3046 103.98 79.1311 103.723 79.2666C101.918 80.1719 100.125 79.6962 98.3727 79.1332C98.2414 79.0931 98.1514 78.9658 98.0191 78.8826C98.1484 78.8364 98.2757 78.704 98.406 78.7009C101.481 78.1973 103.649 76.1184 106 74.4236C106.47 74.0674 106.895 73.669 107.409 73.3549C107.495 73.3098 107.934 73.4721 107.937 73.6015C108.221 74.5873 108.463 75.6603 108.747 76.6461Z" fill="#3A2412"/>
<path d="M50.9083 23.7381C50.0355 25.137 49.2084 26.4514 48.3813 27.7657C48.289 27.8932 48.1014 28.0229 48.0061 28.0252C46.7538 27.4697 45.454 26.9154 44.2941 26.2324C43.9557 26.0315 43.6523 25.2867 43.7873 24.9494C43.9234 24.6538 44.6807 24.4271 45.157 24.416C46.9176 24.2911 48.7356 24.5827 50.2831 23.5021C50.3764 23.4163 50.6185 23.5778 50.9083 23.7381Z" fill="#3A2412"/>
<path d="M102.637 48.0856C102.874 47.3894 103.29 47.0836 103.687 47.8143C103.908 48.2038 103.967 48.9424 103.852 49.4384C103.426 51.0764 103.383 51.0774 104.738 51.1443C105.246 51.1818 105.753 51.1699 106.219 51.2083C106.261 51.2073 106.397 51.5988 106.357 51.6984C105.418 53.1017 103.008 53.1089 101.92 51.7531C101.79 51.6081 101.946 51.0618 102.067 50.8123C102.474 50.1614 102.925 49.5588 103.331 48.8586C103.331 48.8586 102.9 48.4741 102.683 48.2325L102.637 48.0856Z" fill="#3A2412"/>
<path d="M93.1244 72.1322C92.8955 72.791 92.6675 73.4907 92.4386 74.1496C92.2417 74.6852 91.9296 74.7742 91.6739 74.2901C91.2719 73.5235 90.9727 72.6728 90.6744 71.8629C90.6376 71.782 90.7384 71.6163 90.7356 71.4938C90.8073 71.5738 90.9138 71.653 90.9855 71.733C91.0214 71.773 91.0582 71.8539 91.094 71.8939C91.3799 72.1731 91.7422 72.7364 91.9845 72.649C92.5757 72.5535 92.5236 71.8195 92.4414 71.2905C92.3147 70.354 92.2946 69.4968 92.9063 68.7881C93.043 68.6623 93.108 68.4566 93.2089 68.2909C93.2485 68.4941 93.2882 68.6974 93.292 68.8607C93.2481 69.9645 93.1693 71.0692 93.0895 72.133L93.1244 72.1322Z" fill="#3A2412"/>
<path d="M68.8887 62.5725C70.9031 62.7864 72.9175 63.0003 74.8958 63.2586C75.0073 63.256 75.0848 63.3848 75.1984 63.4692C75.0889 63.5588 75.0175 63.6911 74.907 63.7372C74.0557 63.9312 73.1371 64.4316 72.351 64.2324C71.1528 63.9123 70.0559 63.1545 68.9259 62.5716L68.8887 62.5725Z" fill="#3A2412"/>
<path d="M94.304 73.6879C96.5834 74.185 96.5834 74.185 98.7934 73.5826L98.7491 73.5513C98.4531 73.9469 98.2029 74.4385 97.7739 74.74C96.9166 75.3754 95.7443 75.5972 94.7335 75.2647C94.381 75.111 94.4469 74.2027 94.304 73.6879Z" fill="#3A2412"/>
<path d="M107.91 47.2833C107.663 47.2501 107.367 47.257 107.215 47.1044C106.461 46.4976 105.766 46.3578 104.843 46.9649C104.55 47.1279 104.006 47.0626 103.562 47.073C103.752 46.7563 103.892 46.4017 104.131 46.0838C104.324 45.8841 104.566 45.6833 104.858 45.5203C105.344 45.1967 105.873 44.5988 106.367 44.6262C107.256 44.6444 106.831 45.435 107.039 45.8985C107.247 46.3621 107.7 46.7418 108.056 47.1628L107.91 47.2833Z" fill="#3A2412"/>
<path d="M64.009 82.4514C63.9988 82.0169 63.9876 81.539 63.9774 81.1046L63.934 81.149C64.3744 80.9648 64.9047 80.822 65.2987 80.5519C65.5169 80.3729 65.5976 80.0233 65.7683 79.715L65.7248 79.7595C66.3916 79.7438 67.0573 79.6848 67.7251 79.7126C67.9473 79.7074 68.1747 79.9194 68.4 80.0445C68.2263 80.2225 68.0546 80.4873 67.7899 80.5805C66.5545 81.0007 65.3191 81.4209 64.4535 82.441L64.4969 82.3965C64.3201 82.4441 64.1423 82.4483 64.009 82.4514Z" fill="#3A2412"/>
<path d="M87.8025 64.6178C87.6662 64.7004 87.4839 64.784 87.2546 64.8291C87.1634 64.8709 86.9304 64.7573 86.8825 64.6791C86.6909 64.3661 86.5002 64.0928 86.4458 63.7369C86.2355 62.6308 86.0704 61.4839 85.9062 60.3766C86.3909 61.397 86.8755 62.4174 87.3602 63.4377C87.5057 63.7518 87.6062 64.1065 87.8025 64.6178Z" fill="#3A2412"/>
<path d="M43.11 29.0384C43.2833 30.1552 42.4787 31.3939 43.8741 32.3503C43.9247 32.415 43.878 32.515 43.9293 32.6127C43.7823 32.6162 43.5863 32.6208 43.4875 32.5901C43.0379 32.238 42.3433 31.8916 42.2352 31.4656C41.9701 30.6146 41.9493 29.725 43.11 29.0384Z" fill="#3A2412"/>
<path d="M95.8962 64.9636C95.1414 65.9142 94.5757 66.6409 93.9711 67.3685C93.9336 67.4243 93.6152 67.1025 93.5337 66.9397C93.4069 66.5037 93.3953 66.01 93.2685 65.574C93.0965 64.8646 93.2894 64.8052 93.7178 64.85C94.1462 64.8949 94.6083 64.7194 95.073 64.6536C95.2284 64.65 95.4264 64.81 95.8962 64.9636Z" fill="#3A2412"/>
<path d="M91.2882 66.2311C91.3233 66.6923 91.3575 67.115 91.3926 67.5762C91.4295 68.1144 91.4673 68.691 91.5042 69.2292C91.3702 68.6933 91.1877 68.1586 91.1023 67.6215C90.8793 66.3947 90.7039 65.1282 90.5042 63.8623L90.4809 63.9014C90.7668 64.7032 91.0275 65.4672 91.3134 66.269L91.2882 66.2311Z" fill="#3A2412"/>
<path d="M104.623 54.0084C104.46 54.3267 104.351 54.5089 104.185 54.6925C103.684 55.1534 103.185 55.6592 102.683 56.0753C102.516 56.214 102.234 56.3104 102.009 56.4055C102.004 56.181 101.942 55.9579 101.995 55.777C102.151 55.1894 102.25 54.5582 102.521 54.0128C102.63 53.7857 103.252 53.6812 103.649 53.6719C103.933 53.6652 104.279 53.8817 104.623 54.0084Z" fill="#3A2412"/>
<path d="M77.1904 73.1584C76.0064 73.7477 74.8552 74.3923 73.6712 74.9815L73.704 75.0369C74.6713 73.2736 75.9289 73.1318 77.2246 73.2699L77.1904 73.1584Z" fill="#3A2412"/>
<path d="M71.1233 78.691C71.4042 78.753 71.6458 78.8389 71.9268 78.901L71.9661 78.8772C71.4894 78.9799 71.731 79.0657 71.9726 79.1516L71.9321 79.1297C71.6225 79.5488 71.1474 79.7201 70.4232 79.4854C70.3024 79.4425 70.2598 79.329 70.1784 79.2623C70.3774 79.2348 70.5359 79.1853 70.7349 79.1577C70.8158 79.2016 70.9366 79.2445 71.017 79.2655C70.8967 79.2455 70.8158 79.2016 70.6956 79.1815C70.694 79.1129 70.7317 79.0205 70.7301 78.9519L70.6907 78.9757C70.8482 78.8805 71.0057 78.7853 71.1238 78.7139L71.1233 78.691Z" fill="#3A2412"/>
<path d="M108.12 46.38C108.571 46.7768 109.049 47.1221 109.476 47.6723C109.675 47.9222 109.916 48.7823 109.89 48.8339C109.572 49.4015 109.443 48.6406 109.243 48.3398C108.842 47.738 108.442 47.1363 108.041 46.5346L108.12 46.38Z" fill="#3A2412"/>
<path d="M41.2797 34.5493C42.0617 34.5309 42.8853 34.434 43.671 34.5709C43.8014 34.5678 43.9499 35.3411 44.0043 35.8059C44.0061 35.8835 43.6242 36.2809 43.492 36.2063C42.7407 35.6802 42.0292 34.9978 41.3213 34.4706L41.2797 34.5493Z" fill="#3A2412"/>
<path d="M63.9416 81.4764C63.8363 81.3617 63.7053 81.2476 63.6503 81.0926C63.4029 80.3954 63.2069 79.6969 62.9852 78.999C63.0612 78.9581 63.1877 78.8771 63.1877 78.8771C63.4094 79.5749 63.6311 80.2728 63.8271 80.9713C63.883 81.1653 63.8876 81.3605 63.9178 81.5551L63.9416 81.4764Z" fill="#3A2412"/>
<path d="M82.483 67.644C82.6739 66.7701 83.4018 66.2604 84.2374 65.8351L84.2015 65.8069C84.0458 66.68 83.3179 67.1897 82.483 67.644Z" fill="#3A2412"/>
<path d="M104.336 41.7666C104.207 41.8222 104.08 41.9828 103.95 41.9859C103.427 41.9456 102.947 41.8517 102.423 41.7589C102.161 41.7125 101.899 41.6661 101.638 41.6722C101.894 41.456 102.103 41.0833 102.365 41.1297C102.931 41.169 103.5 41.3658 104.025 41.5112C104.111 41.4566 104.203 41.6646 104.336 41.7666Z" fill="#3A2412"/>
<path d="M91.9362 76.6293C92.0222 76.2852 92.1317 75.9405 92.2428 75.6643C92.2867 75.5264 92.4261 75.4547 92.4512 75.5226C92.503 75.7266 92.5848 76.2036 92.5629 76.2725C92.3203 76.9624 92.0762 77.5839 91.8086 78.2059C91.7834 78.1381 91.7348 78.0708 91.7081 77.9346C91.7033 77.7295 91.6985 77.5243 91.7407 77.3181L91.7188 77.387C91.8064 77.1113 91.8705 76.8361 91.9362 76.6293Z" fill="#3A2412"/>
<path d="M66.5736 78.7977C66.4385 79.0867 66.2572 79.4176 66.1221 79.7066L66.1684 79.6647C65.8376 79.6725 65.555 79.7199 65.2242 79.7277C65.0824 79.731 64.9378 79.6119 64.7951 79.5744C64.8867 79.4498 64.9301 79.2854 65.0237 79.2424C65.5406 79.1077 66.0576 78.9731 66.5746 78.8385L66.5736 78.7977Z" fill="#3A2412"/>
<path d="M82.5674 71.2356C82.6736 71.2587 82.7792 71.2563 82.7799 71.2819C83.05 71.5323 83.2672 71.7839 83.4851 72.0611C83.3801 72.0892 83.2745 72.0917 83.1166 72.1211C83.0038 71.8157 82.8387 71.5372 82.5674 71.2356Z" fill="#3A2412"/>
<path d="M89.519 61.1903C89.2323 61.0174 88.889 60.8457 88.6581 60.6458C88.5433 60.5715 88.6527 60.4149 88.6503 60.3123C88.8223 60.4109 89.1066 60.4813 89.1655 60.5826C89.3399 60.7838 89.3447 60.9891 89.406 61.193L89.519 61.1903Z" fill="#3A2412"/>
<path d="M98.5756 25.9809C98.9161 26.1326 99.4801 26.2392 99.4838 26.3988C99.4941 26.8378 99.3922 27.2794 99.2902 27.721C99.0564 27.3272 98.8226 26.9334 98.701 26.537C98.5841 26.3401 98.6916 26.1379 98.6869 25.9384L98.5756 25.9809Z" fill="#3A2412"/>
<path d="M96.8995 31.1402C96.939 31.0011 96.9785 30.8619 97.0608 30.7218C97.266 30.3484 97.5128 29.928 97.7607 29.5536C97.6443 30.0631 97.5707 30.5716 97.4104 31.0361C97.3709 31.1752 97.202 31.2713 97.1187 31.3654C97.0738 31.2744 96.9861 31.1843 96.8995 31.1402Z" fill="#3A2412"/>
<path d="M87.5744 54.8898C87.2701 54.5519 86.9658 54.2141 86.6972 53.8179C86.6204 53.7047 86.6507 53.4165 86.6453 53.1866C86.7564 53.184 86.9402 53.1222 86.9799 53.2363C87.1785 53.8066 87.3401 54.3778 87.5017 54.9489L87.5744 54.8898Z" fill="#3A2412"/>
<path d="M102.694 48.3856C102.391 48.6378 102.117 48.93 101.815 49.1821L101.844 49.2223C102.117 48.93 102.362 48.5976 102.636 48.3053L102.694 48.3856Z" fill="#3A2412"/>
<path d="M63.0665 82.4734C62.5613 82.213 62.1596 82.1135 62.1571 82.0047C62.1469 81.5693 62.3362 81.1293 62.4258 80.6917C62.6279 80.7958 63.0282 80.8409 63.0307 80.9497C63.0409 81.385 63.0512 81.8204 63.0665 82.4734Z" fill="#3A2412"/>
<path d="M91.3794 63.9045C92.421 64.7576 92.7804 65.564 91.4396 66.4729L91.5262 66.5335C91.5056 65.6565 91.4836 64.7169 91.463 63.8399L91.3794 63.9045Z" fill="#3A2412"/>
<path d="M90.7955 77.3313C90.8723 76.9578 90.9049 76.5233 91.0245 76.1487C91.1042 75.899 91.2709 75.7093 91.4375 75.5195C91.489 75.89 91.5405 76.2606 91.6347 76.6301L91.676 76.5672C91.5108 76.8189 91.3869 77.0077 91.2216 77.2594L91.2629 77.1964C91.0919 77.2004 90.9636 77.2034 90.7926 77.2075L90.7955 77.3313Z" fill="#3A2412"/>
<path d="M90.4373 62.0391C89.0132 61.904 89.7141 61.4946 89.628 61.1878L89.5497 61.2177C89.793 61.4927 90.1158 61.794 90.3591 62.069L90.4373 62.0391Z" fill="#3A2412"/>
<path d="M86.3299 78.4556C86.18 78.8226 86.08 79.0673 85.9772 79.1908C85.8216 79.3157 85.6075 79.1995 85.4462 79.0821C85.4406 78.8399 85.4292 78.3555 85.482 78.3543C85.7461 78.3481 85.9602 78.4642 86.3299 78.4556Z" fill="#3A2412"/>
<path d="M70.9381 75.1018C70.6582 75.3533 70.3801 75.6865 70.1002 75.9381L70.1429 76.0188C70.4229 75.7672 70.7009 75.434 70.9809 75.1824L70.9381 75.1018Z" fill="#3A2412"/>
<path d="M87.6167 56.7022C87.3651 56.4222 87.1136 56.1423 86.7804 55.8642L86.6997 55.907C86.9513 56.1869 87.2028 56.4669 87.4544 56.7468L87.6167 56.7022Z" fill="#3A2412"/>
<path d="M63.9854 83.3503C63.6646 83.1945 63.3986 83.119 63.0779 82.9632C63.391 82.7925 63.6531 82.7047 63.9662 82.534L63.9115 82.4536C63.921 82.8618 63.9268 83.1066 63.9854 83.3503Z" fill="#3A2412"/>
<path d="M61.2915 83.4135C61.0169 83.1953 60.6525 82.9792 60.3765 82.705C60.3765 82.705 60.5534 82.5885 60.7317 82.5282C60.9192 82.8607 61.1053 83.1371 61.2915 83.4135Z" fill="#3A2412"/>
<path d="M60.2393 81.6413C60.1335 81.9202 60.0294 82.2682 60.0358 82.5445C59.8098 82.4807 59.6959 82.4142 59.4698 82.3504C59.8017 82.1353 60.0213 81.9228 60.3531 81.7077L60.2393 81.6413Z" fill="#3A2412"/>
<path d="M91.7003 77.5865C91.4556 77.7996 91.2109 78.0127 90.9662 78.2257L90.8382 78.0905C90.7709 77.8848 90.8268 77.607 90.9468 77.3969L90.886 77.4674C91.0699 77.3249 91.2571 77.3205 91.4442 77.3161C91.5082 77.3837 91.6346 77.4499 91.7003 77.5865Z" fill="#3A2412"/>
<path d="M104.991 66.2178C105.229 65.9128 105.55 65.6807 105.788 65.3756L105.704 65.3027C105.711 65.602 105.718 65.9013 105.724 66.1258L105.804 66.049C105.477 66.0567 105.151 66.0643 104.906 66.0701L104.991 66.2178Z" fill="#3A2412"/>
<path d="M84.2369 65.8061C84.4553 65.5443 84.8952 65.149 85.1137 64.8872L84.2369 65.8061Z" fill="#3A2412"/>
<path d="M89.1027 78.2694C89.3405 77.9643 89.6618 77.7322 89.8996 77.4272L89.8163 77.3543C89.8233 77.6536 89.8303 77.9529 89.8356 78.1773L89.9154 78.1006C89.5889 78.1083 89.2624 78.1159 89.0175 78.1217L89.1027 78.2694Z" fill="#3A2412"/>
<path d="M69.3068 76.9368C69.5446 76.6318 69.8659 76.3996 70.1037 76.0946L70.0204 76.0217C69.7825 76.3267 69.4613 76.5589 69.2234 76.8639L69.3068 76.9368Z" fill="#3A2412"/>
<path d="M94.3032 73.6555C94.052 73.3919 93.7171 73.0404 93.4659 72.7768L93.3864 72.8685L94.3032 73.6555Z" fill="#3A2412"/>
<path d="M0.398265 91.801L7.58172 105.385L6.45345 121.533C6.45345 121.533 75.6858 98.2022 151.625 118.129L148.371 100.729L153.938 88.2429C153.937 88.2006 81.4169 64.1316 0.398265 91.801Z" fill="#BDA58B"/>
<path d="M142.871 99.4646L144.985 111.084C144.985 111.084 125.453 106.215 96.2179 105.167C85.0347 104.753 72.4422 104.921 58.9952 106.125C44.5036 107.395 28.9941 109.872 13.1089 114.177L15.2054 103.642L9.47831 94.9821C9.47831 94.9821 18.3398 90.969 34.7487 87.5823C37.2891 87.0577 40.0387 86.5281 42.9157 86.0801C59.9241 83.2713 82.985 81.5889 111.092 84.5237C113.819 84.798 116.588 85.1136 119.443 85.5117C128.385 86.6973 137.839 88.336 147.726 90.5564L142.871 99.4646Z" fill="#3A2412"/>
<path d="M21.9228 100.583L21.1873 97.1896L22.4502 96.8539L23.1856 100.247C23.2768 100.639 23.4478 100.941 23.7797 101.108C24.0716 101.32 24.4003 101.356 24.767 101.26L29.8614 100.003L28.8064 95.2182L30.0703 94.9262L32.1393 104.498L30.8754 104.79L30.139 101.352L25.0036 102.61C24.6779 102.705 24.3092 102.713 23.9794 102.634C23.6496 102.554 23.3188 102.431 23.0279 102.262C22.737 102.094 22.4851 101.838 22.273 101.537C22.144 101.278 22.0139 100.974 21.9228 100.583Z" fill="#BDA58B"/>
<path d="M36.5929 102.859L38.7267 93.1289L40.0709 92.8949L45.5434 101.434L44.1148 101.67L42.5356 99.0742L38.5433 99.6944L37.9793 102.624L36.5929 102.859ZM38.7303 98.6775L41.9657 98.1561L40.5599 95.759C40.1212 95.0403 39.8119 94.44 39.5476 93.9602C39.5197 94.5684 39.4496 95.1775 39.3374 95.7877L38.7303 98.6775Z" fill="#BDA58B"/>
<path d="M49.417 98.2827L48.9835 94.2168C48.9323 93.8359 48.9666 93.4954 49.0854 93.153C49.2042 92.8105 49.3662 92.5095 49.5715 92.2499C49.7768 91.9904 50.0676 91.7713 50.3584 91.5521C50.6925 91.3745 51.0275 91.2392 51.4068 91.1879L55.4552 90.7533C55.8345 90.7019 56.1735 90.7364 56.5145 90.8558C56.8555 90.9752 57.1553 91.138 57.4138 91.3442C57.6723 91.5505 57.8905 91.8426 58.1087 92.1347C58.2857 92.4702 58.4204 92.8067 58.4716 93.1876L57.1225 93.3466C57.0713 92.9657 56.9376 92.6716 56.6358 92.4239C56.3341 92.1763 55.9941 92.0993 55.657 92.1497L51.6086 92.5843C51.2294 92.6356 50.9366 92.7699 50.69 93.0729C50.4435 93.3759 50.3669 93.7173 50.4171 94.0558L50.8507 98.1217C50.9019 98.5026 51.0356 98.7967 51.3374 99.0443C51.6391 99.292 51.9791 99.369 52.3162 99.3186L56.3645 98.884C56.7438 98.8326 57.0366 98.6984 57.2832 98.3954C57.5297 98.0924 57.6073 97.7934 57.5561 97.4125L58.9052 97.2535C58.9564 97.6344 58.9221 97.9749 58.8033 98.3173C58.6845 98.6598 58.5225 98.9608 58.3172 99.2203C58.1119 99.4799 57.8221 99.7415 57.5303 99.9181C57.2385 100.095 56.8612 100.231 56.4809 100.24L52.4325 100.675C52.0532 100.726 51.7142 100.691 51.3732 100.572C51.0322 100.453 50.7324 100.29 50.4317 100.085C50.1732 99.8784 49.9127 99.5873 49.7367 99.2942C49.5607 99.0011 49.426 98.6646 49.417 98.2827Z" fill="#BDA58B"/>
<path d="M63.5044 97.4389L63.3105 92.8842C63.3005 92.457 63.3351 92.0763 63.5003 91.6925C63.6219 91.3097 63.8317 90.9723 64.0425 90.6824C64.2969 90.3915 64.5524 90.1481 64.8972 89.9975C65.2408 89.7995 65.5866 89.6964 65.9782 89.6872L70.153 89.4943C70.5446 89.4851 70.8938 89.5245 71.2028 89.7072C71.5542 89.8414 71.8643 90.0716 72.131 90.3028C72.3987 90.5815 72.6229 90.8612 72.8059 91.2368C72.9888 91.6124 73.0847 91.9901 73.0948 92.4173L73.2886 96.972C73.2986 97.3992 73.264 97.7799 73.0989 98.1637C72.9773 98.5465 72.7675 98.8839 72.5566 99.1738C72.3023 99.4647 72.0468 99.7081 71.702 99.8587C71.3584 100.057 71.0125 100.16 70.621 100.169L66.4462 100.362C66.0546 100.371 65.7054 100.332 65.354 100.197C65.0026 100.063 64.6924 99.8331 64.4258 99.6019C64.1581 99.3232 63.9339 99.0435 63.7944 98.6668C63.6104 98.2437 63.5144 97.8661 63.5044 97.4389ZM64.8956 97.3587C64.9057 97.7859 65.044 98.1151 65.3563 98.4403C65.6241 98.7189 65.9755 98.8532 66.3671 98.844L70.5418 98.6511C70.9334 98.6419 71.2346 98.4924 71.5314 98.153C71.7858 97.8621 71.9074 97.4793 71.8974 97.0521L71.7035 92.4974C71.6935 92.0703 71.5552 91.7411 71.2428 91.4159C70.9751 91.1373 70.6237 91.003 70.2321 91.0122L66.0574 91.2051C65.6658 91.2143 65.3645 91.3638 65.0678 91.7032C64.8134 91.9941 64.6917 92.3769 64.7018 92.8041L64.8956 97.3587Z" fill="#BDA58B"/>
<path d="M77.8482 99.8591L77.903 89.3126L84.8093 89.3861C85.1544 89.378 85.5016 89.464 85.8511 89.6441C86.2005 89.8242 86.4637 90.0063 86.7291 90.2826C86.9945 90.5588 87.1747 90.8841 87.313 91.2575C87.4512 91.6309 87.5463 92.0053 87.5562 92.4287C87.534 93.3237 87.2498 94.0836 86.6161 94.6634C87.2342 95.2609 87.5549 96.0537 87.5327 96.9486C87.5427 97.3721 87.4652 97.7505 87.3004 98.0839C87.1367 98.4644 86.9708 98.7507 86.7187 99.0391C86.4665 99.3275 86.169 99.5228 85.8273 99.672C85.4856 99.8213 85.1427 99.9235 84.7545 99.9326L77.8482 99.8591ZM79.2373 98.3672L84.7624 98.4259C85.1505 98.4168 85.4923 98.2676 85.7444 97.9792C85.9966 97.6908 86.1614 97.3574 86.1515 96.934C86.1415 96.5105 86.0033 96.1371 85.7379 95.8609C85.4725 95.5846 85.1231 95.4045 84.778 95.4126L79.253 95.3539L79.2373 98.3672ZM79.2608 93.8472L84.7858 93.906C85.174 93.8969 85.5157 93.7476 85.7679 93.4593C86.0201 93.1709 86.1838 92.7904 86.1749 92.414C86.165 91.9906 86.0268 91.6172 85.7614 91.341C85.496 91.0647 85.1465 90.8846 84.8015 90.8927L79.2764 90.8339L79.2608 93.8472Z" fill="#BDA58B"/>
<path d="M92.2197 99.7512L92.8248 89.8611L94.1664 89.9625L93.6536 98.4333L97.6783 98.7375L98.1901 90.2225L99.5317 90.3239L99.0199 98.8389L103.044 99.0988L103.514 90.5848L104.855 90.6862L104.385 99.2002L105.685 99.3026L105.542 102.14L104.201 102.039L104.293 100.62L92.2197 99.7512Z" fill="#BDA58B"/>
<path d="M110.23 101.571L111.367 92.1215L112.728 92.2593L111.8 99.7511L119.453 93.0778L120.815 93.2156L119.679 102.707L118.317 102.527L119.242 94.9078L111.592 101.708L110.23 101.571Z" fill="#BDA58B"/>
<path d="M124.63 102.66L126.145 93.5716L127.425 93.7885L126.776 97.6716L128.842 98.0346L133.414 94.759L135.232 95.0456L129.931 98.8732L133.718 104.175L131.9 103.888L128.666 99.3143L126.56 98.9934L125.91 102.876L124.63 102.66Z" fill="#BDA58B"/>
</svg>
