<svg width="141" height="111" viewBox="0 0 141 111" fill="none" xmlns="http://www.w3.org/2000/svg">
<path d="M18.0249 54.2814C17.3532 25.6366 40.014 1.8875 68.6588 1.21581C97.3036 0.544107 121.053 23.2049 121.724 51.8497C122.396 80.4945 99.7353 104.244 71.0905 104.915C42.4457 105.587 18.6966 82.9262 18.0249 54.2814Z" fill="#BDA58B"/>
<path d="M68.3655 6.12456C42.6988 6.72643 22.3166 28.2555 22.9232 54.1239C23.1524 63.8964 26.3313 72.9095 31.6027 80.3014C37.0706 87.9571 44.7424 93.874 53.6459 97.1546C65.909 96.0618 77.3581 95.9467 87.4861 96.2844C96.1881 92.5909 103.536 86.3219 108.601 78.4191C113.482 70.7892 116.236 61.6753 116.008 51.9411C115.401 26.0728 94.0323 5.5227 68.3655 6.12456ZM101.009 77.5235C93.9221 86.8157 82.8794 92.903 70.4073 93.1955C57.8971 93.4888 46.5804 87.8875 39.0657 78.9377C33.3904 72.1688 29.8764 63.4703 29.6536 53.966C29.1342 31.8151 46.5834 13.384 68.5617 12.8686C90.54 12.3532 108.796 29.9471 109.315 52.098C109.501 61.6415 106.399 70.4951 101.009 77.5235Z" fill="#3A2412"/>
<path d="M67.1669 41.9375C67.256 40.9525 67.3834 40.0059 67.4725 39.0209C67.4697 38.9031 67.5417 38.7834 67.5754 38.6254C67.6902 38.7406 67.8416 38.8157 67.9191 38.9318C68.5848 40.2136 69.3253 41.4937 69.8798 42.8174C70.0768 43.2453 70.0159 43.8365 69.8401 44.3124C69.7354 44.6294 69.2906 44.7971 68.9971 45.0398C68.8412 44.7683 68.6862 44.536 68.5302 44.2645C68.4144 44.1099 68.3351 43.9152 68.1828 43.8008C68.1072 43.7633 67.9221 43.8463 67.81 43.8489C68.33 45.2914 66.8734 45.3648 66.405 46.1228C66.2966 46.2826 66.0742 46.3665 65.9658 46.5263C65.82 46.687 65.7507 46.9245 65.6432 47.1236C65.8301 47.1192 66.0188 47.1934 66.2047 47.1497C66.7635 47.058 67.3541 46.7296 67.8791 46.796C68.7424 46.933 69.757 47.1451 70.3305 47.6821C71.3625 48.6408 72.4127 48.7734 73.6824 48.7043C73.9814 48.6973 74.3223 48.8859 74.6241 48.9967C74.5876 49.0369 74.5129 49.0387 74.4764 49.0788C74.44 49.119 74.4409 49.1583 74.4418 49.1976C74.4774 49.1181 74.5503 49.0378 74.5858 48.9583C75.3351 49.0194 75.468 48.3086 75.8316 47.8676C76.1223 47.5069 76.3364 47.0694 76.6663 46.7865C76.8494 46.6249 77.2241 46.6555 77.4839 46.5707C77.4529 46.8467 77.4995 47.2387 77.3173 47.4396C76.3386 48.76 75.3964 50.0402 73.8032 50.6673C72.5062 51.1695 71.3297 52.0227 70.805 53.5683C70.7358 53.8058 70.5162 54.0076 70.333 54.1691C70.2601 54.2495 70.0377 54.3333 69.9985 54.2556C69.8836 54.1403 69.7669 53.9465 69.7641 53.8286C69.9298 52.9205 70.2076 52.0097 70.2985 51.1033C70.4194 49.8817 69.7357 49.4259 68.6246 49.8844C66.5876 50.7185 66.5128 50.7203 65.1241 48.905C64.6609 48.2868 63.6791 47.8773 64.027 46.7683C63.4544 46.2707 63.3714 45.9188 64.1862 45.5851C64.4086 45.5013 64.6592 45.0236 64.62 44.9459C64.4631 44.635 64.1549 44.2491 63.8541 44.1775C63.2524 44.0344 62.5825 44.168 61.9453 44.1043C61.608 44.0729 61.3026 43.8049 60.9999 43.6547C61.1859 43.611 61.3709 43.5281 61.5195 43.4853C61.3308 43.4111 61.1804 43.3753 60.9917 43.3011C60.9534 43.2627 60.9151 43.2242 60.8768 43.1858C60.9151 43.2242 60.9898 43.2225 61.0281 43.2609C61.0318 43.4181 61.0355 43.5753 61.0382 43.6931C59.1932 43.1467 58.3816 42.0255 58.4468 40.0189C58.4685 39.35 58.5285 38.7196 58.5511 38.09C58.624 38.0096 58.6586 37.8909 58.7315 37.8105C58.6969 37.9293 58.624 38.0096 58.5894 38.1284C58.2037 37.6263 57.7815 37.1644 57.4323 36.6222C57.083 36.08 56.8431 35.4172 56.5303 34.8348C56.4127 34.6017 56.1848 34.4498 55.9942 34.297C56.0007 34.572 56.0454 34.8855 56.0519 35.1606C56.0546 35.2784 56.0574 35.3963 56.0228 35.5151C55.9097 35.4784 55.7976 35.4811 55.721 35.4042C54.9205 34.7546 54.6004 33.8579 54.5007 32.7987C54.4274 31.2671 54.3545 31.3474 53.0045 31.1825C52.2543 31.0821 51.5724 30.705 50.8549 30.4073C50.7793 30.3697 50.8047 29.858 50.9149 29.7768C51.9028 28.8494 53.095 28.6641 54.3039 29.1862C56.3815 30.0811 58.4259 29.5614 60.5095 29.1193C60.6207 29.0774 60.6936 28.9971 60.8039 28.9159C60.689 28.8006 60.5714 28.5675 60.421 28.5317C57.1986 28.2534 53.9689 27.6608 50.735 28.4836C50.5491 28.5273 50.3221 28.4146 50.096 28.3413C50.2045 28.1815 50.2746 27.9833 50.4213 27.8619C52.0764 26.6829 53.7808 26.0139 55.8173 26.7525C56.8729 27.1209 58.0725 27.25 59.1992 27.4595C59.4244 27.4935 59.7215 27.4079 59.9458 27.4027C59.6814 27.2909 59.4161 27.1399 59.1517 27.0281C58.9257 26.9548 58.6622 26.8823 58.3997 26.8492C57.8737 26.7436 57.2047 26.9165 56.9256 26.176C57.4852 26.1236 58.0412 25.914 58.5663 25.9803C61.9782 26.3721 65.3265 27.2372 68.5728 28.5371C69.4789 28.909 68.6558 28.889 68.4736 29.0898C68.3997 29.1309 68.4454 29.4837 68.5594 29.5596C69.4364 30.2861 69.309 31.2326 69.0303 32.1041C68.7179 33.1337 68.1237 33.3049 67.1737 32.6588C66.6413 32.2781 66.3824 32.4021 66.1319 32.8798C65.2317 34.3556 65.4918 35.8828 66.2342 37.2414C67.0166 38.7171 67.3132 40.2041 67.1277 41.8598C67.0912 41.8999 67.0548 41.9401 67.0183 41.9803C67.1314 42.0169 67.1305 41.9777 67.1669 41.9375ZM59.4648 32.4071C59.8242 33.3815 60.1453 34.3176 60.5393 35.1733C60.6187 35.368 61.0708 35.5147 61.3324 35.5085C61.5193 35.5042 61.8464 35.1033 61.8063 34.9863C61.3694 33.8957 61.2278 32.6409 60.2012 31.918C60.049 31.8036 59.8612 31.7687 59.6734 31.7338C59.6042 31.9713 59.5714 32.1687 59.4648 32.4071ZM66.2879 29.9667C66.2616 30.4391 66.2335 30.833 66.2427 31.2259C66.2445 31.3045 66.3958 31.3796 66.4734 31.4957C66.5753 31.0608 66.6782 30.6653 66.7428 30.2313C66.7419 30.192 66.5532 30.1178 66.2879 29.9667ZM63.2129 39.1601C63.0297 39.3217 62.9204 39.4422 62.8101 39.5234C63.0754 39.6745 63.3042 39.8657 63.5677 39.9381C63.6434 39.9757 63.7873 39.7364 63.8967 39.6159C63.6697 39.5033 63.4408 39.3121 63.2129 39.1601ZM63.1022 37.6294C62.6492 37.4435 62.4212 37.2915 62.1578 37.2191C62.0074 37.1833 61.8233 37.3056 61.6373 37.3492C61.9036 37.5396 62.1707 37.7692 62.436 37.9202C62.5499 37.9962 62.7331 37.8346 63.1022 37.6294Z" fill="#3A2412"/>
<path d="M75.3782 40.2334C75.1979 40.601 75.0176 40.9686 74.8374 41.3362C74.7516 40.9022 74.5526 40.4708 74.581 40.0704C74.6207 38.5433 74.736 37.0144 74.7758 35.4873C74.7647 35.0152 74.5648 34.5475 74.3658 34.1161C73.1717 31.5278 74.2046 28.851 76.9432 28.0237C79.2321 27.3523 81.4035 26.5019 83.5328 25.4709C84.1679 25.1653 84.8442 25.0041 85.518 24.7339C86.9392 24.1192 87.9741 24.749 88.9763 25.5976C89.1308 25.7393 89.2886 26.0263 89.256 26.2451C89.2216 26.3913 88.8843 26.5082 88.6586 26.5498C86.701 26.8501 84.7434 27.1503 82.7481 27.4515C80.7527 27.7526 78.8775 28.3417 77.1635 29.363C76.9773 29.4764 76.8699 29.7332 76.7232 29.9184C76.9154 30.0592 77.1084 30.2364 77.2989 30.3046C77.7168 30.4038 78.1717 30.4658 78.6265 30.5278L78.5887 30.5287C78.8179 30.6323 79.0847 30.7351 79.3139 30.8387C79.3902 30.8733 79.4288 30.9087 79.5052 30.9433C81.0721 31.7059 82.6598 31.7414 84.3102 31.2303C84.8354 31.0726 85.4413 31.1311 86.0068 31.0815L85.9682 31.0461C85.1415 32.846 83.315 33.9063 81.4185 33.5874C80.2806 33.396 79.1418 33.1684 78.0408 32.9398C77.4332 32.8087 76.8634 32.6767 76.538 33.3021C76.2127 33.9275 76.3018 34.5068 76.8046 35.0037C77.4996 35.6415 78.1577 36.3165 78.8905 36.9534C79.8155 37.7311 80.217 38.7391 80.3944 39.8614C80.4844 40.4771 80.383 40.9882 79.512 40.8996C79.3223 40.8677 79.1335 40.8721 78.9456 40.9129C77.8909 41.0466 77.7801 41.1582 77.7284 42.1769C77.6975 42.4683 77.7807 42.7934 77.7497 43.0848C77.754 43.2664 77.6819 43.4134 77.6106 43.5968C77.4939 43.4542 77.3772 43.3116 77.2236 43.2062C77.0692 43.0644 76.877 42.9236 76.6848 42.7827C76.6135 42.9661 76.5414 43.1131 76.5079 43.2956C76.4409 43.6606 76.4494 44.0237 76.3446 44.3896C76.2751 44.6456 76.13 44.9033 76.0227 45.1602C75.8279 44.9104 75.5207 44.6996 75.477 44.4463C75.3785 43.4675 75.3555 42.4869 75.3334 41.5426C75.36 41.0696 75.3507 40.6701 75.3782 40.2334C75.374 40.0518 75.4452 39.8685 75.4796 39.7223C75.4461 39.9048 75.4126 40.0873 75.3782 40.2334Z" fill="#3A2412"/>
<path d="M82.8806 71.2503C82.7741 71.5039 82.63 71.7583 82.5234 72.0119C82.2993 72.053 82.0753 72.0942 81.8887 72.1344C81.927 72.1694 82.0036 72.2393 82.0036 72.2393C82.1519 72.1641 82.3368 72.0522 82.4851 71.9769L84.0145 71.6183L83.9762 71.5833C83.9412 71.6917 83.9071 71.836 83.8713 71.9086C83.6548 72.2723 83.3999 72.6011 83.1826 72.929C83.744 72.88 84.3072 72.9026 84.8295 72.7828C85.3518 72.6629 85.8315 72.3289 86.3547 72.2449C86.9528 72.1591 87.1128 72.5858 87.0862 73.0527C87.0588 73.4837 86.7665 73.8134 86.3116 73.6088C85.6293 73.302 85.2262 73.706 84.7447 73.9684C78.9299 77.1176 72.6788 77.6587 66.2008 76.5194C64.7321 76.2669 63.38 76.191 61.9732 76.9772C60.8254 77.6139 59.3584 77.4331 58.0729 76.9969C57.9596 76.9637 57.8812 76.8221 57.7663 76.7172C57.952 76.6411 58.1386 76.6008 58.2869 76.5256C58.4351 76.4504 58.5817 76.3035 58.7291 76.1925L58.6925 76.2292C58.8391 76.0823 58.949 75.9721 59.0956 75.8252L59.059 75.8619C59.2056 75.715 59.3155 75.6048 59.4621 75.4579L59.4254 75.4947C59.9869 75.4456 60.585 75.3599 61.1481 75.3825C62.3869 75.4252 63.4332 75.2572 63.5861 73.7831C63.6502 73.3153 63.9143 73.3808 64.2175 73.5172C64.445 73.6195 64.6733 73.7576 64.9007 73.8598C68.1733 75.8634 71.8079 75.7064 75.4732 75.2618C77.1193 75.0797 78.7211 74.6118 80.3255 74.2514C80.5121 74.2111 80.6595 74.1001 80.8069 73.989C80.6186 73.9575 80.4295 73.8902 80.2429 73.9305C79.8314 73.976 79.3824 74.0224 78.9717 74.1038C79.3032 73.8449 79.6356 73.6219 79.9296 73.364C80.1503 73.1794 80.3694 72.9232 80.5517 72.7038L80.5151 72.7405C80.7383 72.6635 80.9241 72.5874 81.1473 72.5105C80.9207 72.444 80.6941 72.3776 80.5059 72.3462L80.5442 72.3811C80.5408 72.2377 80.5383 72.1302 80.5349 71.9868L80.4983 72.0235C80.7198 71.8749 81.4397 72.1808 81.0105 71.4735C81.2337 71.3965 81.457 71.3196 81.6427 71.2435L81.6044 71.2085C81.6436 71.2793 81.6836 71.386 81.7227 71.4568C81.8335 71.3825 81.9443 71.3081 82.0168 71.1988L81.9801 71.2356C82.2417 71.1936 82.4666 71.1883 82.7282 71.1463L82.8806 71.2503Z" fill="#3A2412"/>
<path d="M47.4297 54.0005C47.9367 54.3925 48.4429 54.7478 48.9125 55.1773C50.7119 56.7873 52.4007 58.5835 54.3489 60.0065C55.5961 60.9318 56.5022 62.012 57.4858 63.1272C58.6267 64.4222 59.9547 65.5292 61.2079 66.7114C61.5219 67.0345 61.9106 67.2824 62.2246 67.6055C62.3429 67.7496 62.3872 68.0056 62.468 68.1872C62.2375 68.1559 61.9322 68.1998 61.7382 68.0942C61.1546 67.704 60.6076 67.2395 60.024 66.8494C59.6344 66.5648 59.6038 66.8959 59.7621 67.1125C60.0403 67.5466 59.9324 67.8428 59.5148 67.9995C58.4134 68.3925 57.2721 68.7129 56.1118 68.2261C55.7247 68.0516 55.262 67.9156 54.8393 67.8521C54.5322 67.8226 54.1894 67.9041 53.8458 67.9488C54.0312 67.6875 54.2557 67.4619 54.441 67.2006C55.0379 66.5257 56.0576 65.9143 56.1186 65.252C56.1406 64.5539 55.2039 63.8048 54.69 63.1193C54.256 62.5787 53.8213 62.0015 53.3873 61.4609C53.2699 61.3535 53.0768 61.2846 52.922 61.2148C52.888 61.3992 52.8541 61.5836 52.8584 61.767C53.0373 62.8643 53.2162 63.9616 53.3568 65.0598C53.4003 65.279 53.1758 65.5046 53.1044 65.7266C53.0235 65.5449 52.9044 65.3641 52.861 65.1448C52.4898 64.0153 52.2701 62.8089 51.7484 61.7931C50.6251 59.6165 49.3504 57.5169 48.1513 55.3788C47.8705 54.8346 47.6688 54.3988 47.4297 54.0005Z" fill="#3A2412"/>
<path d="M83.8062 58.0492C82.9604 57.1697 82.8975 56.02 82.5854 54.948C82.5453 54.7691 82.8229 54.3669 83.0372 54.3259C85.4596 53.5855 86.9961 51.7867 88.5676 49.9511C89.3712 49.0329 90.3584 48.2903 91.2731 47.5134C91.7658 47.1061 92.3054 47.1654 92.7817 47.5859C93.2588 48.0424 92.9837 48.5525 92.7411 48.9179C92.2577 49.7207 92.0269 50.5895 91.9771 51.526C91.9505 51.9224 91.783 52.43 91.502 52.6884C90.4474 53.6125 89.356 54.5015 88.1903 55.2843C87.7317 55.6188 87.0504 55.6348 86.4433 55.7569C85.622 55.9201 84.7647 56.0841 83.94 56.1035C83.4021 56.1161 83.5497 56.2925 83.629 56.6144C83.7117 57.0801 83.7235 57.5835 83.7703 58.0501L83.8062 58.0492Z" fill="#3A2412"/>
<path d="M40.5665 39.408C40.5605 39.1536 40.5212 38.9001 40.5495 38.6813C40.6695 38.0969 40.823 37.5116 40.943 36.9272C41.0894 37.469 41.2685 37.9738 41.3815 38.5164C41.4988 39.2407 41.5501 40.0029 41.634 40.728C41.6759 41.0905 41.6861 41.5265 41.8592 41.7769C42.0674 42.0992 42.4726 42.2715 42.7785 42.4824C42.8377 42.1539 42.9963 41.7866 42.9552 41.4604C42.7325 40.5205 42.4764 39.5813 42.1869 38.6429C41.9702 37.9573 41.7201 37.2725 41.536 36.5497C41.4238 36.0434 41.4428 35.425 41.9757 35.3398C42.2756 35.2964 42.788 35.757 42.9636 36.1164C43.2823 36.8723 43.5032 37.7396 43.6565 38.5721C44.0786 40.8888 44.433 43.1707 44.8552 45.4873C45.0478 46.5734 45.4067 47.6192 45.6662 48.7037C45.7022 48.8119 45.5727 48.9967 45.5427 49.1428C45.4416 49.1088 45.3405 49.0749 45.2386 49.0045C42.6358 46.3755 40.6936 43.4038 40.5665 39.408Z" fill="#3A2412"/>
<path d="M59.3147 54.2445C58.4336 54.2196 57.9905 54.9127 57.4687 55.5165C57.2828 55.7484 56.8981 55.6664 56.5941 55.7646C56.5473 55.4016 56.3858 55.0413 56.4548 54.7211C56.7639 53.2121 57.7416 52.461 58.9202 52.1148C59.3006 52.0148 59.8427 52.2752 60.1562 52.5864C61.6846 54.0979 63.4127 54.3304 65.2852 54.1955C66.6987 54.0713 68.1153 54.0836 69.5119 54.87C70.7139 55.5245 71.9275 55.0409 73.0997 54.4218C74.0455 53.9446 75.0307 53.5119 76.0179 53.1702C76.2453 53.0738 76.56 53.4305 76.832 53.6062C76.645 53.7926 76.4984 54.0691 76.3092 54.1645C74.6811 54.9309 73.0924 55.7418 71.4228 56.3726C69.867 56.9552 68.2558 56.8109 66.6372 56.3482C65.4427 56.0122 64.2162 55.9499 62.9855 55.7057C62.3702 55.5836 61.7516 55.3251 61.1331 55.0665C60.4774 54.8543 59.896 54.5494 59.3147 54.2445Z" fill="#3A2412"/>
<path d="M87.815 35.771C87.7583 38.0187 87.0027 40.0117 85.7677 41.7836C85.5562 42.0984 85.086 42.2643 84.7269 42.5052C84.5356 42.1223 84.3078 41.7404 84.1894 41.3558C84.0709 40.9713 84.1338 40.5438 83.9799 40.1988C83.7484 39.662 83.8487 39.2723 84.2798 38.9911C85.4655 38.2274 85.7262 36.9044 86.1355 35.6942C86.203 35.4602 86.1957 35.1505 86.2996 34.9157C86.5065 34.4073 86.8119 33.4319 86.9222 33.468C87.7287 33.6428 87.7842 34.4548 87.8379 35.1895C87.806 35.3839 87.8105 35.5774 87.815 35.771Z" fill="#3A2412"/>
<path d="M96.8703 58.5182C97.9209 57.1981 98.9364 55.9182 99.9879 54.6374C100.093 54.5172 100.272 54.4737 100.415 54.3919C100.455 54.5872 100.604 54.78 100.536 54.9386C100.299 55.6115 100.136 56.3611 99.753 56.9197C98.3235 58.9944 96.8571 61.0308 95.3916 63.1063C95.1116 63.4662 94.8316 63.826 94.5877 64.1851C93.7172 65.5009 93.7172 65.5009 94.5791 66.8938C94.6918 67.0874 94.7343 67.3612 94.8119 67.5949C94.5227 67.5625 94.2353 67.6084 93.9813 67.5359C93.7632 67.4625 93.5425 67.2714 93.3577 67.0795C92.5106 66.3142 92.4284 65.8844 93.053 64.8491C93.8523 63.5742 94.7255 62.3761 95.5258 61.1405C95.8039 60.7022 96.009 60.2263 96.2511 59.7888L96.216 59.8289C96.3565 59.6686 96.4969 59.5083 96.6383 59.3872L96.6032 59.4273C96.7436 59.267 96.8841 59.1067 96.9894 58.9864L96.9543 59.0265C96.9894 58.9864 97.0966 58.9447 97.0957 58.9054C97.0938 58.827 97.056 58.7493 97.0181 58.6717L96.8703 58.5182Z" fill="#3A2412"/>
<path d="M61.7545 44.6777C61.8389 44.7556 61.9646 44.8326 62.0489 44.9106C62.2646 45.3051 62.3986 45.7415 62.6555 46.1351C62.8702 46.4897 62.7905 46.6115 62.4614 46.6592C61.266 46.7272 60.9182 47.7343 60.3162 48.4678C58.9108 50.1391 57.3759 51.5737 55.1183 52.1062C54.8304 52.1529 54.5838 52.1987 54.2951 52.2054C54.1713 52.2083 54.0457 52.1314 53.921 52.0943C54.0007 51.9726 54.0391 51.8518 54.1198 51.77C54.5239 51.4008 55.3358 50.8224 55.2505 50.7045C54.5595 49.402 55.8009 49.5327 56.37 49.1597C58.1983 47.918 60.6191 47.3018 61.4301 44.9251C61.4677 44.7643 61.6317 44.7205 61.7545 44.6777Z" fill="#3A2412"/>
<path d="M78.6788 30.4674C77.665 29.6433 77.6253 29.6442 78.6904 29.266C79.6371 28.9258 80.5847 28.621 81.533 28.3515C83.8231 27.6265 86.1273 27.5019 88.3032 28.6873C88.3843 28.756 88.4647 28.7895 88.5061 28.8592C88.0903 29.7874 87.7963 30.8188 86.4081 30.9927L86.4487 31.0271C86.2839 30.7836 86.0387 30.5068 85.9931 30.2606C85.801 28.852 85.8018 28.8873 84.3673 28.7796C83.0926 28.7035 82.0266 29.0464 81.0907 29.8456C80.6227 30.2452 80.0728 30.5407 79.5634 30.8706C79.4831 30.8371 79.4425 30.8028 79.3621 30.7693C79.16 30.6327 78.8793 30.5333 78.6788 30.4674Z" fill="#3A2412"/>
<path d="M99.2678 69.7012C98.9057 69.435 98.3489 69.2911 98.2221 68.9409C97.7994 67.7737 97.3777 68.3329 96.8356 68.8165C96.3321 69.26 95.8286 69.7034 95.2847 70.1086C94.8188 70.4726 94.3502 70.7191 95.1524 71.2104C95.1919 71.2095 94.9328 71.9611 94.6985 72.0843C93.0575 72.9076 91.4265 72.475 89.8333 71.963C89.7138 71.9265 89.6321 71.8107 89.5117 71.735C89.6293 71.6931 89.7451 71.5726 89.8636 71.5698C92.6596 71.1119 94.6314 69.2214 96.7694 67.6801C97.1967 67.3562 97.5835 66.9939 98.0512 66.7083C98.1293 66.6672 98.5281 66.8148 98.5308 66.9325C98.789 67.8289 99.0096 68.8048 99.2678 69.7012Z" fill="#3A2412"/>
<path d="M46.6699 21.5871C45.8762 22.8593 45.1241 24.0546 44.3719 25.2499C44.2879 25.3658 44.1173 25.4838 44.0307 25.4858C42.8919 24.9807 41.7098 24.4766 40.655 23.8555C40.3473 23.6728 40.0714 22.9955 40.1942 22.6887C40.3179 22.4199 41.0066 22.2138 41.4398 22.2036C43.0408 22.0901 44.6941 22.3552 46.1014 21.3725C46.1863 21.2946 46.4064 21.4414 46.6699 21.5871Z" fill="#3A2412"/>
<path d="M93.711 43.7286C93.9268 43.0954 94.3047 42.8174 94.6663 43.4819C94.8668 43.8361 94.921 44.5078 94.8162 44.9589C94.4283 46.4484 94.3899 46.4493 95.6214 46.5102C96.0835 46.5442 96.5446 46.5334 96.9683 46.5683C97.0067 46.5674 97.1303 46.9234 97.094 47.014C96.2398 48.2902 94.0488 48.2967 93.0589 47.0638C92.9405 46.932 93.0826 46.4351 93.1926 46.2082C93.5631 45.6163 93.9731 45.0684 94.3426 44.4316C94.3426 44.4316 93.95 44.0819 93.7526 43.8622L93.711 43.7286Z" fill="#3A2412"/>
<path d="M85.0608 65.5962C84.8526 66.1954 84.6453 66.8317 84.4371 67.4309C84.2581 67.9179 83.9743 67.9989 83.7417 67.5586C83.3762 66.8615 83.104 66.0878 82.8328 65.3513C82.7993 65.2778 82.891 65.1271 82.8884 65.0157C82.9536 65.0885 83.0506 65.1605 83.1157 65.2333C83.1483 65.2696 83.1818 65.3431 83.2144 65.3795C83.4743 65.6334 83.8038 66.1457 84.0242 66.0663C84.5618 65.9794 84.5144 65.3119 84.4397 64.8308C84.3245 63.9792 84.3062 63.1996 84.8625 62.5551C84.9868 62.4408 85.0459 62.2537 85.1376 62.103C85.1737 62.2879 85.2098 62.4727 85.2132 62.6212C85.1733 63.625 85.1016 64.6296 85.0291 65.597L85.0608 65.5962Z" fill="#3A2412"/>
<path d="M63.0205 56.9028C64.8524 57.0974 66.6843 57.2919 68.4833 57.5268C68.5848 57.5244 68.6552 57.6415 68.7585 57.7183C68.6589 57.7998 68.594 57.9201 68.4935 57.962C67.7193 58.1385 66.884 58.5935 66.1691 58.4123C65.0794 58.1212 64.0819 57.4321 63.0543 56.902L63.0205 56.9028Z" fill="#3A2412"/>
<path d="M86.133 67.011C88.2059 67.4631 88.2059 67.4631 90.2157 66.9153L90.1753 66.8868C89.9062 67.2465 89.6787 67.6936 89.2885 67.9678C88.5089 68.5456 87.4428 68.7473 86.5236 68.4449C86.203 68.3052 86.263 67.4792 86.133 67.011Z" fill="#3A2412"/>
<path d="M98.507 42.9989C98.2818 42.9686 98.0126 42.975 97.8747 42.8362C97.1884 42.2844 96.557 42.1572 95.7171 42.7093C95.4512 42.8575 94.956 42.7982 94.5523 42.8076C94.7251 42.5196 94.8522 42.1972 95.0698 41.9081C95.2451 41.7265 95.4653 41.5438 95.7311 41.3956C96.1731 41.1013 96.6542 40.5576 97.1036 40.5825C97.912 40.5991 97.5249 41.3181 97.7143 41.7396C97.9038 42.1611 98.3159 42.5064 98.6391 42.8893L98.507 42.9989Z" fill="#3A2412"/>
<path d="M58.5827 74.9805C58.5735 74.5854 58.5633 74.1508 58.554 73.7557L58.5145 73.7962C58.915 73.6286 59.3973 73.4987 59.7556 73.2532C59.954 73.0904 60.0274 72.7724 60.1826 72.492L60.1431 72.5325C60.7494 72.5183 61.3549 72.4646 61.9621 72.4899C62.1642 72.4851 62.371 72.6779 62.5759 72.7917C62.4179 72.9535 62.2617 73.1944 62.0211 73.2791C60.8976 73.6612 59.7741 74.0433 58.987 74.971L59.0264 74.9306C58.8657 74.9739 58.704 74.9777 58.5827 74.9805Z" fill="#3A2412"/>
<path d="M80.2205 58.7629C80.0966 58.838 79.9308 58.914 79.7222 58.955C79.6393 58.993 79.4274 58.8897 79.3839 58.8186C79.2096 58.534 79.0362 58.2854 78.9867 57.9618C78.7955 56.9559 78.6454 55.9129 78.4961 54.906C78.9368 55.8339 79.3775 56.7618 79.8183 57.6897C79.9507 57.9753 80.042 58.2979 80.2205 58.7629Z" fill="#3A2412"/>
<path d="M39.5778 26.4072C39.7354 27.4228 39.0038 28.5493 40.2727 29.419C40.3187 29.4779 40.2763 29.5688 40.3229 29.6576C40.1892 29.6608 40.011 29.665 39.9211 29.6371C39.5123 29.3169 38.8806 29.0019 38.7824 28.6145C38.5413 27.8406 38.5223 27.0316 39.5778 26.4072Z" fill="#3A2412"/>
<path d="M87.5811 59.0772C86.8947 59.9417 86.3803 60.6025 85.8305 61.2642C85.7963 61.3149 85.5068 61.0222 85.4327 60.8742C85.3174 60.4777 85.3068 60.0288 85.1915 59.6322C85.0351 58.9871 85.2105 58.9331 85.6001 58.9739C85.9897 59.0147 86.4099 58.8551 86.8325 58.7953C86.9738 58.792 87.1539 58.9375 87.5811 59.0772Z" fill="#3A2412"/>
<path d="M83.3903 60.2299C83.4222 60.6493 83.4533 61.0337 83.4852 61.4531C83.5188 61.9425 83.5531 62.4669 83.5867 62.9563C83.4649 62.469 83.2989 61.9827 83.2212 61.4943C83.0184 60.3787 82.8589 59.227 82.6773 58.0758L82.6561 58.1113C82.9161 58.8405 83.1532 59.5352 83.4132 60.2644L83.3903 60.2299Z" fill="#3A2412"/>
<path d="M95.5173 49.1146C95.3691 49.404 95.2697 49.5698 95.1186 49.7367C94.6635 50.1559 94.2094 50.6159 93.7533 50.9942C93.6013 51.1203 93.3451 51.208 93.1404 51.2945C93.1357 51.0904 93.0792 50.8875 93.127 50.7229C93.2695 50.1886 93.3593 49.6146 93.606 49.1186C93.7045 48.912 94.2705 48.8171 94.6319 48.8086C94.8901 48.8025 95.2047 48.9994 95.5173 49.1146Z" fill="#3A2412"/>
<path d="M70.5705 66.5296C69.4937 67.0654 68.4468 67.6516 67.3701 68.1875L67.3999 68.2379C68.2797 66.6343 69.4233 66.5054 70.6015 66.6309L70.5705 66.5296Z" fill="#3A2412"/>
<path d="M65.0526 71.5608C65.3081 71.6172 65.5278 71.6953 65.7833 71.7517L65.8191 71.7301C65.3856 71.8235 65.6053 71.9015 65.8249 71.9796L65.7882 71.9597C65.5066 72.3408 65.0746 72.4966 64.416 72.2832C64.3061 72.2441 64.2674 72.141 64.1933 72.0803C64.3743 72.0553 64.5185 72.0103 64.6995 71.9852C64.773 72.0251 64.8829 72.0641 64.9559 72.0832C64.8466 72.065 64.773 72.0251 64.6637 72.0069C64.6622 71.9445 64.6965 71.8604 64.6951 71.798L64.6593 71.8197C64.8025 71.7331 64.9457 71.6465 65.0531 71.5816L65.0526 71.5608Z" fill="#3A2412"/>
<path d="M98.6978 42.1776C99.108 42.5384 99.5421 42.8524 99.9304 43.3527C100.111 43.5801 100.331 44.3622 100.307 44.4091C100.018 44.9253 99.9009 44.2333 99.7187 43.9598C99.3544 43.4126 98.9901 42.8654 98.6258 42.3182L98.6978 42.1776Z" fill="#3A2412"/>
<path d="M37.9133 31.4187C38.6244 31.4021 39.3735 31.3139 40.088 31.4384C40.2065 31.4356 40.3416 32.1388 40.391 32.5615C40.3927 32.6321 40.0454 32.9934 39.9252 32.9256C39.2419 32.4472 38.5949 31.8266 37.9511 31.3472L37.9133 31.4187Z" fill="#3A2412"/>
<path d="M58.5217 74.0938C58.4259 73.9895 58.3068 73.8857 58.2568 73.7448C58.0318 73.1107 57.8535 72.4755 57.6519 71.8409C57.7211 71.8037 57.8361 71.73 57.8361 71.73C58.0377 72.3646 58.2393 72.9993 58.4176 73.6345C58.4684 73.8109 58.4726 73.9884 58.5001 74.1654L58.5217 74.0938Z" fill="#3A2412"/>
<path d="M75.3835 61.5148C75.5571 60.7201 76.219 60.2565 76.9789 59.8698L76.9463 59.8442C76.8047 60.6381 76.1427 61.1017 75.3835 61.5148Z" fill="#3A2412"/>
<path d="M95.2563 37.9821C95.1388 38.0327 95.0237 38.1787 94.9051 38.1815C94.4299 38.1448 93.9931 38.0595 93.5167 37.9751C93.2785 37.9329 93.0404 37.8907 92.8033 37.8963C93.0359 37.6997 93.2256 37.3607 93.4638 37.4029C93.9785 37.4386 94.4966 37.6176 94.9741 37.7498C95.052 37.7002 95.1355 37.8894 95.2563 37.9821Z" fill="#3A2412"/>
<path d="M83.9802 69.6858C84.0584 69.3729 84.158 69.0595 84.2591 68.8082C84.2989 68.6829 84.4257 68.6177 84.4485 68.6794C84.4957 68.8649 84.57 69.2987 84.5501 69.3614C84.3295 69.9887 84.1075 70.5539 83.8641 71.1196C83.8413 71.0579 83.7971 70.9967 83.7728 70.8729C83.7684 70.6863 83.764 70.4997 83.8024 70.3122L83.7825 70.3749C83.8622 70.1241 83.9205 69.8739 83.9802 69.6858Z" fill="#3A2412"/>
<path d="M60.9153 71.6579C60.7925 71.9207 60.6275 72.2217 60.5047 72.4845L60.5468 72.4464C60.246 72.4534 59.989 72.4966 59.6881 72.5036C59.5592 72.5067 59.4277 72.3983 59.2979 72.3642C59.3812 72.2509 59.4207 72.1014 59.5058 72.0623C59.9759 71.9398 60.446 71.8174 60.9162 71.695L60.9153 71.6579Z" fill="#3A2412"/>
<path d="M75.46 64.7809C75.5566 64.802 75.6526 64.7997 75.6532 64.823C75.8988 65.0507 76.0964 65.2795 76.2945 65.5316C76.199 65.5572 76.103 65.5594 75.9594 65.5862C75.8568 65.3085 75.7067 65.0552 75.46 64.7809Z" fill="#3A2412"/>
<path d="M81.7815 55.6459C81.5207 55.4886 81.2085 55.3325 80.9986 55.1507C80.8942 55.0831 80.9937 54.9408 80.9915 54.8474C81.1478 54.9371 81.4064 55.0011 81.46 55.0932C81.6186 55.2762 81.6229 55.4629 81.6787 55.6483L81.7815 55.6459Z" fill="#3A2412"/>
<path d="M90.0175 23.6269C90.3271 23.7648 90.8399 23.8618 90.8433 24.0069C90.8527 24.4061 90.76 24.8077 90.6673 25.2093C90.4546 24.8512 90.242 24.493 90.1314 24.1325C90.0251 23.9535 90.1229 23.7696 90.1187 23.5882L90.0175 23.6269Z" fill="#3A2412"/>
<path d="M88.4938 28.3186C88.5298 28.1921 88.5657 28.0655 88.6405 27.9381C88.8271 27.5985 89.0515 27.2162 89.277 26.8758C89.1711 27.3391 89.1042 27.8015 88.9585 28.2239C88.9225 28.3504 88.769 28.4378 88.6932 28.5234C88.6523 28.4406 88.5726 28.3586 88.4938 28.3186Z" fill="#3A2412"/>
<path d="M80.0133 49.9162C79.7365 49.6089 79.4598 49.3017 79.2155 48.9414C79.1457 48.8385 79.1733 48.5764 79.1684 48.3674C79.2694 48.365 79.4365 48.3088 79.4727 48.4125C79.6533 48.9311 79.8002 49.4506 79.9472 49.97L80.0133 49.9162Z" fill="#3A2412"/>
<path d="M93.7631 44.0014C93.4876 44.2306 93.2386 44.4964 92.9631 44.7257L92.9895 44.7622C93.2386 44.4964 93.4612 44.1941 93.7103 43.9283L93.7631 44.0014Z" fill="#3A2412"/>
<path d="M57.7259 75.0005C57.2665 74.7637 56.9013 74.6732 56.8989 74.5743C56.8897 74.1784 57.0618 73.7782 57.1433 73.3802C57.327 73.4749 57.6911 73.5159 57.6934 73.6149C57.7027 74.0108 57.712 74.4067 57.7259 75.0005Z" fill="#3A2412"/>
<path d="M83.4735 58.1141C84.4207 58.8899 84.7476 59.6232 83.5283 60.4498L83.607 60.5049C83.5883 59.7074 83.5682 58.8529 83.5495 58.0553L83.4735 58.1141Z" fill="#3A2412"/>
<path d="M82.9426 70.3242C83.0124 69.9845 83.0421 69.5894 83.1508 69.2488C83.2233 69.0217 83.3748 68.8492 83.5264 68.6766C83.5732 69.0135 83.62 69.3505 83.7057 69.6866L83.7433 69.6293C83.593 69.8582 83.4803 70.0299 83.3301 70.2588L83.3677 70.2016C83.2121 70.2052 83.0955 70.208 82.9399 70.2116L82.9426 70.3242Z" fill="#3A2412"/>
<path d="M82.6168 56.4177C81.3218 56.2949 81.9591 55.9226 81.8808 55.6436L81.8097 55.6708C82.0309 55.9209 82.3245 56.1948 82.5457 56.4449L82.6168 56.4177Z" fill="#3A2412"/>
<path d="M78.8816 71.3466C78.7453 71.6804 78.6544 71.9029 78.5609 72.0153C78.4194 72.1288 78.2247 72.0232 78.078 71.9164C78.0728 71.6961 78.0625 71.2556 78.1105 71.2545C78.3507 71.2489 78.5454 71.3545 78.8816 71.3466Z" fill="#3A2412"/>
<path d="M64.8844 68.2968C64.6298 68.5256 64.377 68.8286 64.1224 69.0574L64.1612 69.1307C64.4158 68.9019 64.6687 68.5989 64.9233 68.3701L64.8844 68.2968Z" fill="#3A2412"/>
<path d="M80.0521 51.5645C79.8233 51.3099 79.5945 51.0553 79.2915 50.8025L79.2182 50.8413C79.4469 51.0959 79.6757 51.3505 79.9045 51.6051L80.0521 51.5645Z" fill="#3A2412"/>
<path d="M58.5618 75.798C58.2701 75.6563 58.0282 75.5877 57.7365 75.446C58.0212 75.2908 58.2596 75.2109 58.5443 75.0557L58.4946 74.9826C58.5033 75.3537 58.5085 75.5764 58.5618 75.798Z" fill="#3A2412"/>
<path d="M56.112 75.8554C55.8623 75.657 55.5309 75.4605 55.28 75.2111C55.28 75.2111 55.4409 75.1052 55.603 75.0503C55.7735 75.3527 55.9428 75.604 56.112 75.8554Z" fill="#3A2412"/>
<path d="M55.1554 74.2439C55.0592 74.4975 54.9645 74.8139 54.9704 75.0652C54.7648 75.0072 54.6613 74.9468 54.4556 74.8887C54.7574 74.6931 54.9571 74.4999 55.2589 74.3043L55.1554 74.2439Z" fill="#3A2412"/>
<path d="M83.7653 70.5564C83.5428 70.7502 83.3203 70.9439 83.0977 71.1377L82.9813 71.0147C82.9202 70.8276 82.971 70.5751 83.0801 70.384L83.0248 70.4481C83.1921 70.3185 83.3623 70.3145 83.5325 70.3105C83.5907 70.372 83.7056 70.4321 83.7653 70.5564Z" fill="#3A2412"/>
<path d="M95.8517 60.2177C96.068 59.9403 96.3601 59.7293 96.5764 59.4519L96.5006 59.3855C96.507 59.6577 96.5134 59.9299 96.5182 60.134L96.5908 60.0643C96.2939 60.0712 95.9969 60.0782 95.7743 60.0834L95.8517 60.2177Z" fill="#3A2412"/>
<path d="M76.9781 59.8434C77.1768 59.6053 77.5769 59.2458 77.7755 59.0077L76.9781 59.8434Z" fill="#3A2412"/>
<path d="M81.403 71.1773C81.6193 70.8999 81.9114 70.6888 82.1277 70.4114L82.0519 70.3451C82.0582 70.6173 82.0646 70.8895 82.0694 71.0936L82.1421 71.0238C81.8451 71.0308 81.5482 71.0378 81.3255 71.043L81.403 71.1773Z" fill="#3A2412"/>
<path d="M63.401 69.9654C63.6173 69.688 63.9094 69.4769 64.1257 69.1995L64.0499 69.1332C63.8336 69.4106 63.5415 69.6217 63.3252 69.8991L63.401 69.9654Z" fill="#3A2412"/>
<path d="M86.1321 66.9816C85.9036 66.7419 85.5991 66.4222 85.3706 66.1825L85.2983 66.2659L86.1321 66.9816Z" fill="#3A2412"/>
<path d="M0.736252 83.4829L7.26881 95.8359L6.24277 110.521C6.24277 110.521 69.2019 89.3042 138.261 107.425L135.301 91.6022L140.364 80.2472C140.363 80.2088 74.4138 58.3207 0.736252 83.4829Z" fill="#BDA58B"/>
<path d="M130.299 91.2809L132.221 101.848C132.221 101.848 114.459 97.4198 87.8735 96.4668C77.7036 96.0901 66.2521 96.2432 54.0236 97.3374C40.845 98.4924 26.7408 100.746 12.295 104.66L14.2015 95.0799L8.9934 87.2046C8.9934 87.2046 17.0519 83.5551 31.974 80.4753C34.2843 79.9982 36.7847 79.5166 39.4011 79.1092C54.8682 76.5549 75.8396 75.025 101.4 77.6938C103.88 77.9433 106.398 78.2303 108.994 78.5923C117.126 79.6705 125.723 81.1607 134.714 83.1799L130.299 91.2809Z" fill="#3A2412"/>
<path d="M20.3107 91.4692L19.6419 88.3833L20.7904 88.078L21.4592 91.164C21.5421 91.5199 21.6976 91.7946 21.9994 91.9466C22.2648 92.1392 22.5638 92.1719 22.8973 92.0846L27.53 90.9421L26.5706 86.5905L27.72 86.3249L29.6015 95.029L28.4522 95.2945L27.7825 92.1689L23.1124 93.3122C22.8162 93.3987 22.4809 93.4066 22.181 93.3341C21.8811 93.2616 21.5803 93.1493 21.3157 92.9965C21.0512 92.8436 20.8221 92.6104 20.6293 92.3366C20.5119 92.1008 20.3936 91.8252 20.3107 91.4692Z" fill="#BDA58B"/>
<path d="M33.6515 93.5386L35.592 84.6905L36.8144 84.4777L41.791 92.2428L40.4919 92.4574L39.0557 90.0971L35.4251 90.661L34.9123 93.3249L33.6515 93.5386ZM35.5952 89.7363L38.5375 89.2621L37.259 87.0822C36.8601 86.4286 36.5788 85.8828 36.3385 85.4464C36.3131 85.9995 36.2494 86.5534 36.1473 87.1083L35.5952 89.7363Z" fill="#BDA58B"/>
<path d="M45.3136 89.3772L44.9193 85.6798C44.8727 85.3334 44.9039 85.0238 45.012 84.7123C45.12 84.4009 45.2674 84.1272 45.4541 83.8911C45.6408 83.6551 45.9052 83.4558 46.1697 83.2566C46.4734 83.095 46.7781 82.972 47.123 82.9253L50.8046 82.5301C51.1495 82.4834 51.4578 82.5148 51.768 82.6234C52.0781 82.7319 52.3507 82.88 52.5857 83.0675C52.8208 83.2551 53.0193 83.5207 53.2177 83.7863C53.3787 84.0914 53.5012 84.3974 53.5478 84.7439L52.3209 84.8885C52.2743 84.542 52.1527 84.2746 51.8783 84.0494C51.6039 83.8242 51.2947 83.7542 50.9882 83.8L47.3066 84.1952C46.9617 84.2419 46.6954 84.364 46.4712 84.6395C46.247 84.9151 46.1774 85.2256 46.2231 85.5334L46.6173 89.2308C46.6639 89.5773 46.7855 89.8447 47.0599 90.0699C47.3343 90.2951 47.6435 90.3651 47.95 90.3193L51.6316 89.9241C51.9765 89.8774 52.2428 89.7553 52.467 89.4798C52.6912 89.2042 52.7617 88.9323 52.7151 88.5859L53.942 88.4413C53.9886 88.7877 53.9574 89.0973 53.8494 89.4088C53.7413 89.7202 53.594 89.9939 53.4073 90.23C53.2206 90.466 52.957 90.7039 52.6917 90.8645C52.4263 91.0252 52.0832 91.1491 51.7374 91.1572L48.0558 91.5524C47.7109 91.5991 47.4026 91.5677 47.0925 91.4592C46.7824 91.3506 46.5098 91.2025 46.2363 91.0159C46.0012 90.8284 45.7643 90.5636 45.6043 90.2971C45.4442 90.0306 45.3217 89.7246 45.3136 89.3772Z" fill="#BDA58B"/>
<path d="M58.1245 88.61L57.9482 84.468C57.9391 84.0796 57.9706 83.7333 58.1208 83.3843C58.2314 83.0362 58.4221 82.7294 58.6139 82.4658C58.8452 82.2012 59.0776 81.9798 59.3911 81.8429C59.7036 81.6628 60.0181 81.5691 60.3742 81.5607L64.1706 81.3853C64.5268 81.377 64.8443 81.4127 65.1253 81.5789C65.4449 81.7009 65.7269 81.9103 65.9694 82.1205C66.2129 82.3739 66.4168 82.6283 66.5832 82.9699C66.7495 83.3115 66.8368 83.655 66.8459 84.0435L67.0222 88.1854C67.0313 88.5739 66.9998 88.9201 66.8496 89.2692C66.739 89.6173 66.5483 89.9241 66.3565 90.1877C66.1252 90.4522 65.8928 90.6736 65.5793 90.8105C65.2669 90.9906 64.9523 91.0844 64.5962 91.0927L60.7998 91.2681C60.4436 91.2765 60.1261 91.2407 59.8065 91.1187C59.4869 90.9966 59.2049 90.7873 58.9624 90.577C58.719 90.3236 58.5151 90.0692 58.3883 89.7267C58.2209 89.3419 58.1336 88.9985 58.1245 88.61ZM59.3897 88.5371C59.3988 88.9256 59.5246 89.225 59.8086 89.5206C60.0521 89.7741 60.3717 89.8961 60.7278 89.8878L64.5243 89.7124C64.8804 89.704 65.1543 89.568 65.4242 89.2594C65.6555 88.9948 65.7661 88.6467 65.757 88.2583L65.5807 84.1163C65.5716 83.7278 65.4458 83.4285 65.1618 83.1328C64.9183 82.8794 64.5987 82.7573 64.2426 82.7657L60.4461 82.9411C60.09 82.9494 59.8161 83.0854 59.5462 83.394C59.3149 83.6586 59.2043 84.0067 59.2134 84.3952L59.3897 88.5371Z" fill="#BDA58B"/>
<path d="M71.1686 90.8109L71.2184 81.22L77.4989 81.2868C77.8127 81.2794 78.1285 81.3576 78.4463 81.5214C78.7641 81.6852 79.0034 81.8509 79.2448 82.1021C79.4861 82.3533 79.65 82.6491 79.7757 82.9887C79.9014 83.3282 79.9879 83.6687 79.9969 84.0537C79.9768 84.8676 79.7183 85.5587 79.142 86.0859C79.7041 86.6293 79.9957 87.3502 79.9756 88.1641C79.9846 88.5492 79.9142 88.8934 79.7643 89.1965C79.6155 89.5425 79.4646 89.8029 79.2353 90.0652C79.006 90.3274 78.7354 90.505 78.4247 90.6407C78.1139 90.7765 77.8021 90.8694 77.4491 90.8777L71.1686 90.8109ZM72.4318 89.4541L77.4563 89.5075C77.8093 89.4993 78.12 89.3635 78.3493 89.1013C78.5786 88.839 78.7285 88.5359 78.7195 88.1508C78.7104 87.7657 78.5848 87.4261 78.3434 87.1749C78.1021 86.9237 77.7843 86.7599 77.4705 86.7673L72.4461 86.7139L72.4318 89.4541ZM72.4532 85.3437L77.4776 85.3972C77.8306 85.3889 78.1414 85.2532 78.3707 84.9909C78.6 84.7287 78.7489 84.3827 78.7408 84.0404C78.7318 83.6553 78.6061 83.3158 78.3648 83.0646C78.1234 82.8133 77.8056 82.6496 77.4918 82.6569L72.4674 82.6035L72.4532 85.3437Z" fill="#BDA58B"/>
<path d="M84.2378 90.7127L84.7881 81.7187L86.0081 81.8109L85.5418 89.5142L89.2018 89.7908L89.6672 82.0473L90.8873 82.1395L90.4218 89.883L94.081 90.1194L94.5083 82.3768L95.7284 82.469L95.301 90.2116L96.483 90.3047L96.3532 92.8853L95.1332 92.7931L95.2171 91.5023L84.2378 90.7127Z" fill="#BDA58B"/>
<path d="M100.616 92.3672L101.65 83.7743L102.888 83.8996L102.044 90.7126L109.004 84.644L110.242 84.7693L109.209 93.4008L107.97 93.2368L108.811 86.3082L101.854 92.4925L100.616 92.3672Z" fill="#BDA58B"/>
<path d="M113.711 93.3577L115.089 85.0932L116.253 85.2904L115.663 88.8216L117.541 89.1517L121.7 86.173L123.352 86.4336L118.532 89.9143L121.975 94.7355L120.323 94.4748L117.382 90.3155L115.466 90.0236L114.876 93.5549L113.711 93.3577Z" fill="#BDA58B"/>
</svg>
